<?xml version="1.0" encoding="utf-8"?>
<!-- Generator: Adobe Illustrator 24.0.2, SVG Export Plug-In . SVG Version: 6.00 Build 0)  -->
<svg version="1.1" id="Layer_1" xmlns="http://www.w3.org/2000/svg" xmlns:xlink="http://www.w3.org/1999/xlink" x="0px" y="0px"
	 viewBox="0 0 400 400" style="enable-background:new 0 0 400 400;" xml:space="preserve">
<style type="text/css">
	.st0{fill:#3E334C;}
	.st1{fill:#F9E3D9;}
	.st2{fill:#E54D3C;}
	.st3{fill:#89C7D1;}
	.st4{fill:#BDE0D8;}
	.st5{fill:#F8B4B9;}
	.st6{fill:#FFF1A5;}
	.st7{fill:#F15C5E;}
	.st8{fill:#010101;}
	.st9{fill:#FCD837;}
	.st10{fill:#FEEA3A;}
	.st11{fill:#C42A28;}
	.st12{fill:#68C07D;}
	.st13{fill:#D81F2A;}
	.st14{fill:#07838F;}
	.st15{fill:#6A2C91;}
	.st16{fill:#913F98;}
	.st17{fill:#AE1F59;}
	.st18{fill:#617D8C;}
	.st19{fill:#75ABDC;}
</style>
<g>
	<g id="pudding-2_1_">
		<polygon class="st1" points="320.7,341.35 79.94,341.35 92.03,189.93 308.61,189.93 		"/>
		<path class="st3" d="M359,341.35v6.06c0,13.38-9.8,24.23-21.89,24.23H63.52c-12.09,0-21.89-10.85-21.89-24.23v-6.06H359z"/>
		<path class="st12" d="M227.68,26.39h16.42c0.05,16.68-12.13,30.23-27.19,30.28c-0.05,0-0.11,0-0.16,0h-16.42
			c-0.05-16.68,12.13-30.23,27.19-30.28C227.57,26.39,227.63,26.39,227.68,26.39z"/>
		<ellipse class="st13" cx="200.32" cy="105.13" rx="27.36" ry="30.28"/>
		<path class="st5" d="M308.61,189.93H282.4v75.71c0,11.71-8.57,21.2-19.15,21.2c-10.56-0.06-19.1-9.51-19.15-21.2v-51.48
			c0,10.04-7.35,18.17-16.42,18.17c-9.07,0-16.42-8.14-16.42-18.17v-24.23H92.03l3.45-43.49c0.49-6.25,5.22-11.04,10.89-11.02h187.9
			c5.67-0.01,10.4,4.78,10.89,11.02L308.61,189.93z"/>
		<path class="st8" d="M359,335.29h-33.27l-15.1-189.34c-0.74-9.39-7.84-16.6-16.36-16.6h-69.55c12.11-14.87,11.04-37.78-2.39-51.19
			c-4.64-4.63-10.38-7.7-16.54-8.83v-6.6h10.94c18.13,0,32.83-16.27,32.83-36.34c0-3.35-2.45-6.06-5.47-6.06h-16.42
			c-8.09,0.01-15.88,3.33-21.89,9.33v-9.33h-10.94v49c-17.84,3.29-29.89,21.97-26.91,41.71c1.03,6.82,3.8,13.18,7.98,18.31h-69.55
			c-8.52,0-15.62,7.2-16.36,16.6l-15.1,189.34H41.64c-3.02,0-5.47,2.71-5.47,6.06v6.06c0,16.73,12.25,30.28,27.36,30.28h273.59
			c15.11,0,27.36-13.56,27.36-30.28v-6.06C364.48,338,362.03,335.29,359,335.29z M227.68,32.45h10.23
			c-2.49,10.69-11.2,18.16-21.18,18.17H206.5C209,39.93,217.71,32.46,227.68,32.45z M194.85,81.75v5.21h10.94v-5.21
			c11.7,3.35,18.74,16.56,15.72,29.51c-3.02,12.96-14.96,20.75-26.66,17.4s-18.74-16.56-15.72-29.51
			C181.12,90.62,187.14,83.96,194.85,81.75z M100.9,146.98c0.26-3.13,2.63-5.52,5.47-5.51h187.9c2.84-0.01,5.22,2.38,5.47,5.51
			l2.9,36.89H282.4c-3.02,0-5.47,2.71-5.47,6.06v75.71c0,8.36-6.12,15.14-13.68,15.14c-7.54-0.03-13.65-6.79-13.68-15.14v-69.65
			h-10.94v18.17c-0.02,6.68-4.91,12.09-10.94,12.11c-6.03-0.05-10.9-5.44-10.94-12.11v-24.23c0-3.35-2.45-6.06-5.47-6.06H98
			L100.9,146.98z M97.01,195.98h108.78v18.17c-0.02,13.36,9.76,24.21,21.83,24.23c0.02,0,0.04,0,0.05,0
			c3.86-0.02,7.64-1.19,10.94-3.39v30.65c0.07,15.02,11.05,27.18,24.62,27.26c13.59-0.02,24.6-12.21,24.62-27.26v-69.65h15.76
			l11.11,139.31H85.9L97.01,195.98z M337.12,365.58H63.52c-9.05-0.03-16.39-8.15-16.42-18.17h306.42
			C353.51,357.43,346.17,365.55,337.12,365.58z"/>
	</g>
</g>
</svg>
