<?xml version="1.0" encoding="utf-8"?>
<!-- Generator: Adobe Illustrator 24.0.2, SVG Export Plug-In . SVG Version: 6.00 Build 0)  -->
<svg version="1.1" id="Layer_1" xmlns="http://www.w3.org/2000/svg" xmlns:xlink="http://www.w3.org/1999/xlink" x="0px" y="0px"
	 viewBox="0 0 400 400" style="enable-background:new 0 0 400 400;" xml:space="preserve">
<style type="text/css">
	.st0{fill:#3E334C;}
	.st1{fill:#F9E3D9;}
	.st2{fill:#E54D3C;}
	.st3{fill:#89C7D1;}
	.st4{fill:#BDE0D8;}
	.st5{fill:#F8B4B9;}
	.st6{fill:#FFF1A5;}
	.st7{fill:#F15C5E;}
	.st8{fill:#010101;}
	.st9{fill:#FCD837;}
	.st10{fill:#FEEA3A;}
	.st11{fill:#C42A28;}
	.st12{fill:#68C07D;}
	.st13{fill:#D81F2A;}
	.st14{fill:#07838F;}
	.st15{fill:#6A2C91;}
	.st16{fill:#913F98;}
	.st17{fill:#AE1F59;}
	.st18{fill:#617D8C;}
	.st19{fill:#75ABDC;}
</style>
<g>
	<g id="Page-1_1_">
		<g id="_x30_36---Love-Cake_1_">
			<path id="Shape_15_" class="st0" d="M380,339.68v5.82c0,12.86-11.21,23.28-25.05,23.28H41.86c-13.83,0-25.05-10.42-25.05-23.28
				v-5.82c0-3.21,2.8-5.82,6.26-5.82h244.21v5.18c-0.13,6.19,4.79,11.46,11.4,12.22c3.5,0.28,6.96-0.82,9.55-3.02
				c2.59-2.2,4.08-5.3,4.1-8.57v-5.82h25.11c0.16,5.94,4.98,10.88,11.33,11.58c3.5,0.28,6.96-0.82,9.55-3.02
				c2.59-2.2,4.08-5.3,4.1-8.57h31.31c1.66,0,3.25,0.61,4.43,1.7C379.34,336.66,380,338.14,380,339.68L380,339.68z"/>
			<path id="Shape_14_" class="st1" d="M354.95,199.99H41.86c-6.91,0.02-12.5,5.22-12.52,11.64v122.23h237.95v5.18
				c-0.13,6.19,4.79,11.46,11.4,12.22c3.5,0.28,6.96-0.82,9.55-3.02c2.59-2.2,4.08-5.3,4.1-8.57v-5.82h25.11
				c0.16,5.94,4.98,10.88,11.33,11.58c3.5,0.28,6.96-0.82,9.55-3.02c2.59-2.2,4.08-5.3,4.1-8.57h25.05V211.63
				C367.46,205.21,361.86,200.01,354.95,199.99L354.95,199.99z"/>
			<path id="Shape_13_" class="st2" d="M367.48,223.27v40.74h-12.52c-6.91,0.02-12.5,5.22-12.52,11.64v58.2
				c-0.02,3.26-1.51,6.37-4.1,8.57c-2.59,2.2-6.05,3.29-9.55,3.02c-6.35-0.71-11.18-5.64-11.33-11.58
				c-0.05-0.21-0.07-0.43-0.06-0.64v-34.28c-0.02-3.26-1.51-6.37-4.1-8.57c-2.59-2.2-6.05-3.29-9.55-3.02
				c-6.61,0.76-11.52,6.04-11.4,12.22v40.1c-0.02,3.26-1.51,6.37-4.1,8.57c-2.59,2.2-6.05,3.29-9.55,3.02
				c-6.61-0.76-11.52-6.04-11.4-12.22v-63.38c-0.02-6.42-5.62-11.62-12.52-11.64H29.33v-40.74l16.47,11.87
				c4.51,3.32,10.89,3.32,15.4,0l8.77-6.29c4.49-3.32,10.85-3.32,15.34,0l8.77,6.29c4.51,3.32,10.89,3.32,15.4,0l8.77-6.29
				c4.51-3.32,10.89-3.32,15.4,0l8.77,6.29c4.49,3.32,10.85,3.32,15.34,0l8.77-6.29c4.51-3.32,10.89-3.32,15.4,0l8.77,6.29
				c4.51,3.32,10.89,3.32,15.4,0l8.77-6.29c4.51-3.32,10.89-3.32,15.4,0l8.77,6.29c4.49,3.32,10.85,3.32,15.34,0l8.77-6.29
				c4.51-3.32,10.89-3.32,15.4,0l8.77,6.29c4.51,3.32,10.89,3.32,15.4,0l8.77-6.29c4.49-3.32,10.85-3.32,15.34,0l8.77,6.29
				c4.51,3.32,10.89,3.32,15.4,0L367.48,223.27z"/>
			<path id="Shape_12_" class="st3" d="M367.48,211.63v11.64l-16.47,11.87c-4.51,3.32-10.89,3.32-15.4,0l-8.77-6.29
				c-4.49-3.32-10.85-3.32-15.34,0l-8.77,6.29c-4.51,3.32-10.89,3.32-15.4,0l-8.77-6.29c-4.51-3.32-10.89-3.32-15.4,0l-8.77,6.29
				c-4.49,3.32-10.85,3.32-15.34,0l-8.77-6.29c-4.51-3.32-10.89-3.32-15.4,0l-8.77,6.29c-4.51,3.32-10.89,3.32-15.4,0l-8.77-6.29
				c-4.51-3.32-10.89-3.32-15.4,0l-8.77,6.29c-4.49,3.32-10.85,3.32-15.34,0l-8.77-6.29c-4.51-3.32-10.89-3.32-15.4,0l-8.77,6.29
				c-4.51,3.32-10.89,3.32-15.4,0l-8.77-6.29c-4.49-3.32-10.85-3.32-15.34,0l-8.77,6.29c-4.51,3.32-10.89,3.32-15.4,0l-16.47-11.87
				v-11.64c0.02-6.42,5.62-11.62,12.52-11.64h313.09C361.86,200.01,367.46,205.21,367.48,211.63L367.48,211.63z"/>
			<path id="Shape_11_" class="st1" d="M317.38,130.15H79.43c-6.91,0.02-12.5,5.22-12.52,11.64v58.2h263v-58.2
				C329.88,135.37,324.29,130.17,317.38,130.15z"/>
			<path id="Shape_10_" class="st4" d="M329.9,141.79v23.05l-3.88-2.74c-7.23-5.12-17.25-5.12-24.48,0L287.57,172
				c-7.25,5.06-17.23,5.06-24.48,0l-13.96-9.89c-7.23-5.12-17.25-5.12-24.48,0L210.68,172c-7.28,5.06-17.27,5.06-24.55,0
				l-13.96-9.89c-7.23-5.12-17.25-5.12-24.48,0L133.72,172c-7.25,5.06-17.23,5.06-24.48,0l-13.96-9.89
				c-7.23-5.12-17.25-5.12-24.48,0l-3.88,2.74v-23.05c0.02-6.42,5.62-11.62,12.52-11.64h237.95
				C324.29,130.17,329.88,135.37,329.9,141.79L329.9,141.79z"/>
			<path id="Shape_9_" class="st5" d="M206.29,59.32c0.45,9.38-2.31,18.65-7.89,26.48c-10.72,14.98-23.15,28.83-37.07,41.32
				c-2,1.93-4.76,3.02-7.64,3.03c-2.24,0.01-4.41-0.67-6.2-1.92c-32.12-22.64-53.73-38.88-55.42-60.01
				c-1.38-16.36,9.14-31.14,26.05-32.48c12.23-0.39,23.72,5.43,29.99,15.19c4.6-10.61,14.98-18.1,27.18-19.61
				c8.88-0.75,17.56,2.71,23.11,9.2C203.1,45.85,205.86,52.43,206.29,59.32L206.29,59.32z"/>
			<path id="Shape_8_" class="st5" d="M304.73,68.22c-1.69,21.13-23.23,37.37-55.36,60.01c-1.79,1.24-3.96,1.92-6.2,1.92
				c-2.91,0-5.7-1.11-7.7-3.08c-13.97-12.41-26.39-26.26-37.01-41.27h-0.06c5.58-7.83,8.34-17.1,7.89-26.48
				c-0.44-6.88-3.2-13.46-7.89-18.8l0.06-0.06c5.54-6.46,14.2-9.89,23.04-9.14c12.18,1.51,22.55,9.01,27.11,19.61
				c6.27-9.76,17.77-15.57,29.99-15.13C295.53,37.14,306.11,51.81,304.73,68.22L304.73,68.22z"/>
		</g>
	</g>
</g>
</svg>
