<?xml version="1.0" encoding="utf-8"?>
<!-- Generator: Adobe Illustrator 24.0.2, SVG Export Plug-In . SVG Version: 6.00 Build 0)  -->
<svg version="1.1" id="Layer_1" xmlns="http://www.w3.org/2000/svg" xmlns:xlink="http://www.w3.org/1999/xlink" x="0px" y="0px"
	 viewBox="0 0 400 400" style="enable-background:new 0 0 400 400;" xml:space="preserve">
<style type="text/css">
	.st0{fill:#3E334C;}
	.st1{fill:#F9E3D9;}
	.st2{fill:#E54D3C;}
	.st3{fill:#89C7D1;}
	.st4{fill:#BDE0D8;}
	.st5{fill:#F8B4B9;}
	.st6{fill:#FFF1A5;}
	.st7{fill:#F15C5E;}
	.st8{fill:#010101;}
	.st9{fill:#FCD837;}
	.st10{fill:#FEEA3A;}
	.st11{fill:#C42A28;}
	.st12{fill:#68C07D;}
	.st13{fill:#D81F2A;}
	.st14{fill:#07838F;}
	.st15{fill:#6A2C91;}
	.st16{fill:#913F98;}
	.st17{fill:#AE1F59;}
	.st18{fill:#617D8C;}
	.st19{fill:#75ABDC;}
</style>
<g>
	<g id="Donut_1_">
		<path class="st1" d="M376.19,164.35h-0.06C358.34,66.52,264.41,1.59,166.32,19.33C87.1,33.65,26.96,98.59,18.93,178.5
			c-0.61,6.19-0.9,12.41-0.87,18.62c0.57,99.43,81.84,179.57,181.53,179c90.16-0.51,166.11-67.31,177.91-156.46
			c1.09-7.98,1.61-16.03,1.56-24.09C379.02,185.1,378.06,174.65,376.19,164.35L376.19,164.35z M198.87,264.67
			c-37.82,0.14-68.61-30.31-68.78-68.04c-0.06-6.29,0.78-12.57,2.49-18.62c10.1-36.34,47.83-57.64,84.27-47.56
			c29.58,8.18,50.09,35,50.17,65.62c0.06,9.6-1.93,19.1-5.85,27.87C250.27,248.59,225.87,264.54,198.87,264.67L198.87,264.67z"/>
		<path class="st5" d="M379.05,195.57c0.05,8.06-0.47,16.1-1.56,24.09c-17.27,13.35-38.66,20.28-60.5,19.62
			c-19.73,0.59-39.18-4.76-55.83-15.33c3.92-8.77,5.92-18.27,5.85-27.87c-0.1-37.71-30.83-68.21-68.65-68.11
			c-30.7,0.08-57.59,20.53-65.79,50.04l-21.22,0.12c-13.7,0.03-24.8,11.1-24.83,24.77v0.25c-0.01,10.29-8.38,18.62-18.69,18.61
			c-4.91,0-9.62-1.94-13.12-5.38c-3.55-3.46-5.55-8.21-5.54-13.16c-0.03-13.68-11.18-24.74-24.9-24.71c-0.02,0-0.04,0-0.06,0h-5.29
			C28.88,79.57,117.35,7.41,216.54,17.34c80.12,8.01,145.23,67.99,159.59,147.01h0.06C378.06,174.65,379.02,185.1,379.05,195.57
			L379.05,195.57z"/>
		<path class="st8" d="M198.56,10.14h-0.81C94.62,10.37,11.21,93.93,11.43,196.79s84,186.06,187.13,185.83l0,0h0.82
			c103.12-0.23,186.54-83.79,186.31-186.65C385.46,93.12,301.68,9.92,198.56,10.14C198.56,10.14,198.56,10.14,198.56,10.14z
			 M74.79,73.98c32.47-32.84,76.76-51.35,123.01-51.42h0.76c96.07-0.17,174.09,77.38,174.26,173.2c0.01,6.89-0.39,13.77-1.2,20.61
			c-15.92,11.35-35.11,17.22-54.67,16.72h-0.62c-16.58,0.28-32.95-3.74-47.5-11.66c13.9-38.71-6.3-81.32-45.11-95.19
			c-8.08-2.88-16.59-4.36-25.17-4.36h-0.33c-31.65,0.1-59.78,20.14-70.15,49.96l-16.76,0.1c-17.19,0.11-31.05,14.06-31.02,31.2
			c0,6.81-5.5,12.35-12.32,12.42c-3.33,0.01-6.52-1.29-8.89-3.62c-2.36-2.3-3.69-5.45-3.68-8.73c0-16.46-12.99-30-29.48-30.72
			C31.01,135.22,48.17,100.62,74.79,73.98z M198.83,258.46h-0.27c-34.37,0.07-62.3-27.66-62.37-61.95s27.73-62.14,62.11-62.21h0.27
			c34.37-0.07,62.3,27.66,62.37,61.95S233.2,258.39,198.83,258.46L198.83,258.46z M199.31,370.2h-0.76
			c-95.92-0.11-173.76-77.42-174.27-173.09c0-4.15,0.16-8.27,0.43-12.37c10.11,0.17,18.22,8.38,18.24,18.46
			c-0.02,6.62,2.65,12.97,7.4,17.6c9.78,9.64,25.54,9.54,35.21-0.21c4.66-4.71,7.25-11.08,7.18-17.7
			c0.05-10.25,8.39-18.54,18.67-18.56l13.52-0.08c-0.7,4.1-1.05,8.26-1.05,12.42c0.16,41.02,33.54,74.19,74.66,74.2h0.33
			c19.82-0.03,38.8-7.97,52.72-22.05c4.72-4.77,8.77-10.15,12.06-16c16.21,8.57,34.33,12.94,52.68,12.69h0.7
			c18.03,0.2,35.83-4.04,51.83-12.34C351.47,312.8,281.02,369.73,199.31,370.2L199.31,370.2z"/>
		<path class="st19" d="M141.92,53.79l24.9-0.1l0.05,12.42l-24.9,0.1L141.92,53.79z"/>
		<path class="st19" d="M99.93,112.35l18.58-24.92l10,7.41l-18.58,24.92L99.93,112.35z"/>
		<path class="st19" d="M230.55,80.68l18.58-24.92l10,7.41l-18.58,24.92L230.55,80.68z"/>
		<path class="st19" d="M285.29,102.83l12.45-0.05l0.05,12.42l-12.45,0.05L285.29,102.83z"/>
		<path class="st19" d="M81.91,151.57l8.76-8.82l12.5,12.36l-8.76,8.82L81.91,151.57z"/>
		<path class="st19" d="M179.47,97.09l24.9-0.1l0.05,12.42l-24.9,0.1L179.47,97.09z"/>
		<path class="st19" d="M297.99,177.42l12.45-0.05l0.1,24.83l-12.45,0.05L297.99,177.42z"/>
		<path class="st19" d="M331.66,194.34l7.42-9.97l24.99,18.5l-7.42,9.97L331.66,194.34z"/>
	</g>
</g>
</svg>
