<?xml version="1.0" encoding="utf-8"?>
<!-- Generator: Adobe Illustrator 24.0.2, SVG Export Plug-In . SVG Version: 6.00 Build 0)  -->
<svg version="1.1" id="Layer_1" xmlns="http://www.w3.org/2000/svg" xmlns:xlink="http://www.w3.org/1999/xlink" x="0px" y="0px"
	 viewBox="0 0 400 400" style="enable-background:new 0 0 400 400;" xml:space="preserve">
<style type="text/css">
	.st0{fill:#3E334C;}
	.st1{fill:#F9E3D9;}
	.st2{fill:#E54D3C;}
	.st3{fill:#89C7D1;}
	.st4{fill:#BDE0D8;}
	.st5{fill:#F8B4B9;}
	.st6{fill:#FFF1A5;}
	.st7{fill:#F15C5E;}
	.st8{fill:#010101;}
	.st9{fill:#FCD837;}
	.st10{fill:#FEEA3A;}
	.st11{fill:#C42A28;}
	.st12{fill:#68C07D;}
	.st13{fill:#D81F2A;}
	.st14{fill:#07838F;}
	.st15{fill:#6A2C91;}
	.st16{fill:#913F98;}
	.st17{fill:#AE1F59;}
	.st18{fill:#617D8C;}
	.st19{fill:#75ABDC;}
</style>
<g>
	<g id="Page-1_3_">
		<g id="_x30_03---Danish_1_">
			<path id="Shape_35_" class="st1" d="M365.16,137.24l1.09-1.25c-0.06-8.06-0.64-16.11-1.73-24.1c-2.5-18.93-11.34-36.3-30.3-44.21
				c-2.56-1.08-5.22-1.92-7.94-2.49c-13.32-19.37-31.39-35.06-56.18-37.24c-8.63-0.9-17.36,0.5-25.24,4.05l-0.32-1.87
				c-13.53-7.97-29.02-12.27-44.84-12.45c-15.82,0.19-31.3,4.49-44.84,12.45l-2.63,0.87c-7.29-2.77-15.15-3.82-22.93-3.05
				c-24.79,2.18-42.85,17.87-56.18,37.24c-2.73,0.57-5.39,1.41-7.94,2.49c-18.96,7.91-27.8,25.28-30.3,44.21
				c-1.09,7.99-1.67,16.04-1.73,24.1l1.09,1.25c-23.64,19.55-20.11,57.22-20.11,57.22c3.82,46.78,11.47,93.19,22.87,138.8
				c5.15,18.92,21.21,33.16,41.06,36.43c40.21,6.37,80.9,9.43,121.64,9.15c40.74,0.28,81.43-2.79,121.64-9.15
				c19.85-3.26,35.91-17.51,41.06-36.43c11.4-45.6,19.04-92.02,22.87-138.8C385.28,194.46,388.8,156.79,365.16,137.24L365.16,137.24
				z"/>
			<path id="Shape_34_" class="st4" d="M82.49,351.37c-0.37,0-0.74-0.03-1.11-0.09c-12.4-2.02-22.46-10.88-25.74-22.68
				c-0.63-2.17,0-4.51,1.64-6.1c1.64-1.59,4.05-2.2,6.28-1.58c2.23,0.62,3.95,2.37,4.48,4.56c2.02,7.06,8.08,12.33,15.52,13.5
				c3.27,0.56,5.56,3.45,5.28,6.66c-0.28,3.22-3.05,5.69-6.37,5.7L82.49,351.37z"/>
			<path id="Shape_33_" class="st4" d="M319.98,351.37c-3.32-0.01-6.08-2.48-6.37-5.7c-0.28-3.22,2.01-6.11,5.28-6.66
				c7.46-1.17,13.53-6.46,15.54-13.54c0.53-2.2,2.24-3.94,4.48-4.56c2.23-0.62,4.64-0.02,6.28,1.58c1.64,1.59,2.27,3.93,1.64,6.1
				c-3.28,11.8-13.34,20.66-25.74,22.68C320.72,351.33,320.35,351.37,319.98,351.37L319.98,351.37z"/>
			<path id="Shape_32_" class="st1" d="M90.82,117.31c0.05,4.05,1.34,8,3.72,11.33c-29.59-6.41-48.43-1.18-60.28,8.59l-1.09-1.25
				c0.06-8.06,0.64-16.11,1.73-24.1c2.5-18.93,11.34-36.3,30.3-44.21c2.56-1.08,5.22-1.92,7.94-2.49
				c20.63-4.61,41.57,5.42,57.33,18.49C106.26,91.66,90.82,103.74,90.82,117.31L90.82,117.31z"/>
			<path id="Shape_31_" class="st1" d="M175.95,74.78c-15.47,1.23-30.73,4.22-45.48,8.9c-15.76-13.08-36.7-23.1-57.33-18.49
				c13.32-19.37,31.39-35.06,56.18-37.24c7.78-0.77,15.65,0.28,22.93,3.05c7.37,2.83,13.54,8.01,17.49,14.7
				C174.65,54.61,176.81,64.71,175.95,74.78z"/>
			<path id="Shape_30_" class="st1" d="M326.28,65.19c-20.63-4.61-41.57,5.42-57.33,18.49c-14.75-4.69-30.01-7.68-45.48-8.9
				c-0.86-10.07,1.3-20.17,6.21-29.08c3.53-5.94,8.82-10.71,15.18-13.7c7.88-3.55,16.6-4.95,25.24-4.05
				C294.9,30.13,312.96,45.83,326.28,65.19z"/>
			<path id="Shape_29_" class="st1" d="M244.87,32c-6.36,2.98-11.65,7.76-15.18,13.7c-4.92,8.91-7.08,19.01-6.21,29.08
				c-7.62-0.68-15.57-1.06-23.76-1.06s-16.14,0.37-23.76,1.06c0.86-10.07-1.3-20.17-6.21-29.08c-3.95-6.68-10.12-11.86-17.49-14.7
				l2.63-0.87c13.53-7.97,29.02-12.27,44.84-12.45c15.82,0.19,31.3,4.49,44.84,12.45L244.87,32z"/>
			<path id="Shape_28_" class="st1" d="M366.25,135.99l-1.09,1.25c-11.85-9.78-30.75-15.01-60.34-8.47c0.59-0.86,1.13-1.75,1.6-2.68
				c1.4-2.73,2.15-5.73,2.18-8.78c0-13.57-15.44-25.65-39.65-33.63c15.76-13.08,36.7-23.1,57.33-18.49
				c2.73,0.57,5.39,1.41,7.94,2.49c18.96,7.91,27.8,25.28,30.3,44.21C365.61,119.88,366.19,127.93,366.25,135.99L366.25,135.99z"/>
			<path id="Shape_17_" class="st5" d="M308.6,117.31c-0.03,3.05-0.77,6.05-2.18,8.78c-0.47,0.93-1.01,1.82-1.6,2.68
				c-4,5.39-9.16,9.88-15.12,13.14c-1.69,0.01-3.38,0.12-5.06,0.31c-2.01,0.21-3.99,0.54-5.96,1c-7.15,1.63-13.51,5.61-18,11.27
				c-5.71,8.48-8.88,18.33-9.16,28.46c-0.26,3.05-0.45,6.04-0.51,9.09h-0.06c0,0-6.41-37.36-51.24-37.36
				c-8.67-0.17-17.28,1.55-25.17,5.04c-11.68,5.42-20.57,15.25-24.6,27.21h-0.13c-0.06-1.31-0.13-2.68-0.26-3.99
				c-0.3-10.13-3.49-19.99-9.22-28.46c-4.46-5.68-10.83-9.67-18-11.27c-1.94-0.46-3.91-0.79-5.89-1c-2.15-0.23-4.31-0.32-6.47-0.25
				c-6.11-3.23-11.39-7.77-15.44-13.26v-0.06c-2.37-3.33-3.67-7.28-3.72-11.33c0-13.57,15.44-25.65,39.65-33.63
				c14.75-4.69,30.01-7.68,45.48-8.9c7.62-0.68,15.57-1.06,23.76-1.06c8.2,0,16.14,0.37,23.76,1.06c15.47,1.23,30.73,4.22,45.48,8.9
				C293.17,91.66,308.6,103.74,308.6,117.31L308.6,117.31z"/>
			<g>
				<ellipse id="Oval_15_" class="st5" cx="87.62" cy="276.1" rx="16.01" ry="15.57"/>
				<ellipse id="Oval_14_" class="st5" cx="331.02" cy="238.74" rx="16.01" ry="15.57"/>
				<ellipse id="Oval_13_" class="st5" cx="273.37" cy="288.55" rx="16.01" ry="15.57"/>
				<ellipse id="Oval_12_" class="st5" cx="193.31" cy="260.53" rx="12.81" ry="12.45"/>
				<ellipse id="Oval_11_" class="st5" cx="231.74" cy="341.48" rx="12.81" ry="12.45"/>
				<ellipse id="Oval_10_" class="st5" cx="65.2" cy="229.39" rx="12.81" ry="12.45"/>
				<ellipse id="Oval_9_" class="st5" cx="148.47" cy="322.8" rx="12.81" ry="12.45"/>
			</g>
		</g>
	</g>
</g>
</svg>
