<?xml version="1.0" encoding="utf-8"?>
<!-- Generator: Adobe Illustrator 24.0.2, SVG Export Plug-In . SVG Version: 6.00 Build 0)  -->
<svg version="1.1" id="Layer_1" xmlns="http://www.w3.org/2000/svg" xmlns:xlink="http://www.w3.org/1999/xlink" x="0px" y="0px"
	 viewBox="0 0 400 400" style="enable-background:new 0 0 400 400;" xml:space="preserve">
<style type="text/css">
	.st0{fill:#3E334C;}
	.st1{fill:#F9E3D9;}
	.st2{fill:#E54D3C;}
	.st3{fill:#89C7D1;}
	.st4{fill:#BDE0D8;}
	.st5{fill:#F8B4B9;}
	.st6{fill:#FFF1A5;}
	.st7{fill:#F15C5E;}
	.st8{fill:#010101;}
	.st9{fill:#FCD837;}
	.st10{fill:#FEEA3A;}
	.st11{fill:#C42A28;}
	.st12{fill:#68C07D;}
	.st13{fill:#D81F2A;}
	.st14{fill:#07838F;}
	.st15{fill:#6A2C91;}
	.st16{fill:#913F98;}
	.st17{fill:#AE1F59;}
	.st18{fill:#617D8C;}
	.st19{fill:#75ABDC;}
</style>
<g>
	<path class="st3" d="M323.26,247.88L295.01,89.63H129.76l-28.29,158.12c-7.58,42.39,0.22,86.12,21.98,123.16l0,0
		c3.91,6.66,11.01,10.74,18.67,10.74h140.51c7.67,0,14.77-4.09,18.68-10.76l0.04-0.06C323.04,333.84,330.82,290.2,323.26,247.88z"/>
	<path class="st1" d="M295.01,89.63H129.76l-28.29,158.12c-2.13,11.9-3.04,23.91-2.78,35.85c0.62,27.89,23.17,50.18,50.79,50.18
		h125.76c27.62,0,50.17-22.29,50.79-50.18c0.26-11.9-0.65-23.86-2.77-35.73L295.01,89.63z"/>
	<polygon class="st3" points="302.13,129.51 295.01,89.63 129.76,89.63 122.63,129.51 	"/>
	<g>
		<path class="st6" d="M290.51,286.16l-18.75,18.94c-7.55,7.63-19.8,7.63-27.36,0l-18.75-18.94c-7.55-7.63-7.55-20.01,0-27.64
			l18.75-18.94c7.55-7.63,19.8-7.63,27.36,0l18.75,18.94C298.06,266.15,298.06,278.53,290.51,286.16z"/>
		<path class="st6" d="M173.47,256.58h-15.23c-13.2,0-23.89-10.81-23.89-24.14v-15.39c0-13.33,10.7-24.14,23.89-24.14h15.23
			c13.2,0,23.89,10.81,23.89,24.14v15.39C197.36,245.77,186.67,256.58,173.47,256.58z"/>
	</g>
	<ellipse class="st7" cx="245.63" cy="186.77" rx="23.96" ry="24.2"/>
	<g>
		<path class="st4" d="M223.02,89.63h25.04c15.67-17.78,20.99-45.06,11.59-70.79l0,0l0,0c-13.78,5.18-24.48,15.31-31.17,28.01
			C232.45,61.08,230.63,76.42,223.02,89.63z"/>
		<path class="st4" d="M223.02,89.63c12.87-22.37,9.17-50.82-11.1-69.69l0,0l0,0c-20.28,18.87-23.98,47.32-11.1,69.69H223.02z"/>
		<path class="st4" d="M82.5,140.27c-27.5-27.78-27.5-72.82,0-100.6s72.08-27.78,99.57,0L82.5,140.27z"/>
	</g>
	<path class="st6" d="M164.16,57.78c-17.6-17.78-46.13-17.78-63.73,0s-17.6,46.6,0,64.38L164.16,57.78z"/>
	<path class="st8" d="M239.24,310.32c5.19,5.25,12.02,7.87,18.84,7.87c6.82,0,13.65-2.62,18.84-7.87l18.75-18.94c0,0,0,0,0,0
		c10.39-10.49,10.39-27.57,0-38.07l-18.75-18.94c-10.39-10.49-27.29-10.49-37.68,0l-18.75,18.94c-10.39,10.49-10.39,27.57,0,38.07
		L239.24,310.32z M230.82,263.74l18.75-18.94c2.35-2.37,5.43-3.56,8.52-3.56c3.08,0,6.17,1.19,8.52,3.56l18.75,18.94
		c4.7,4.75,4.7,12.46,0,17.21v0l-18.75,18.94c-4.7,4.74-12.34,4.74-17.03,0l-18.75-18.94C226.12,276.2,226.12,268.48,230.82,263.74z
		"/>
	<path class="st8" d="M158.24,263.95h15.23c17.2,0,31.19-14.14,31.19-31.51v-15.39c0-17.38-13.99-31.51-31.19-31.51h-15.23
		c-17.2,0-31.19,14.14-31.19,31.51v15.39C127.05,249.82,141.04,263.95,158.24,263.95z M141.65,217.05c0-9.24,7.44-16.76,16.59-16.76
		h15.23c9.15,0,16.59,7.52,16.59,16.76v15.39c0,9.24-7.44,16.76-16.59,16.76h-15.23c-9.15,0-16.59-7.52-16.59-16.76V217.05z"/>
	<path class="st8" d="M165.85,282.52c-1.92,0-3.8,0.79-5.16,2.16c-1.36,1.37-2.14,3.27-2.14,5.21c0,1.94,0.78,3.84,2.14,5.21
		c1.36,1.37,3.24,2.16,5.16,2.16c1.93,0,3.8-0.79,5.16-2.16c1.37-1.37,2.15-3.27,2.15-5.21c0-1.94-0.78-3.84-2.15-5.21
		C169.66,283.31,167.78,282.52,165.85,282.52z"/>
	<path class="st8" d="M187.4,167.82c1.92,0,3.8-0.79,5.16-2.16c1.36-1.37,2.14-3.27,2.14-5.21s-0.78-3.84-2.14-5.21
		c-1.36-1.37-3.23-2.16-5.16-2.16c-1.92,0-3.8,0.79-5.16,2.16c-1.36,1.37-2.14,3.27-2.14,5.21s0.78,3.84,2.14,5.21
		C183.6,167.04,185.48,167.82,187.4,167.82z"/>
	<path class="st8" d="M199.63,308.17c0,1.95,0.77,3.84,2.14,5.21c1.36,1.37,3.24,2.16,5.16,2.16c1.92,0,3.8-0.79,5.16-2.16
		c1.36-1.37,2.14-3.27,2.14-5.21c0-1.94-0.78-3.84-2.14-5.21c-1.36-1.37-3.24-2.16-5.16-2.16c-1.92,0-3.8,0.79-5.16,2.16
		C200.4,304.32,199.63,306.23,199.63,308.17z"/>
	<path class="st8" d="M245.62,218.35c17.23,0,31.26-14.17,31.26-31.58c0-9.29-3.99-17.65-10.33-23.44c1.31-3.84,4.91-6.61,9.15-6.61
		c4.03,0,7.3-3.3,7.3-7.37s-3.27-7.37-7.3-7.37c-9.77,0-18.2,5.86-22.05,14.28c-2.56-0.69-5.25-1.06-8.02-1.06
		c-17.23,0-31.26,14.17-31.26,31.58C214.37,204.18,228.39,218.35,245.62,218.35z M245.62,169.94c9.18,0,16.66,7.55,16.66,16.83
		c0,9.28-7.47,16.83-16.66,16.83s-16.66-7.55-16.66-16.83C228.97,177.49,236.44,169.94,245.62,169.94z"/>
	<path class="st5" d="M330.44,246.57L302.19,88.33c-0.63-3.51-3.65-6.07-7.18-6.07h-9.49l17.67-61.36c1.13-3.91-1.1-8-4.97-9.14
		c-3.87-1.14-7.92,1.11-9.05,5.02l-18.86,65.48h-8.16c4.01-7.24,6.83-15.27,8.3-23.77c2.41-13.95,1.04-28.54-3.95-42.2
		c-0.67-1.84-2.04-3.33-3.8-4.15c-1.76-0.82-3.77-0.89-5.59-0.21c-10.5,3.95-19.78,10.68-27.05,19.46
		c-3.37-6.17-7.79-11.85-13.18-16.86c-2.8-2.6-7.1-2.6-9.89,0c-11.07,10.3-18.07,23.39-20.25,37.84
		c-1.51,10.02-0.52,20.31,2.77,29.89h-39.24l36.99-37.37c2.85-2.88,2.85-7.55,0-10.43c-30.3-30.61-79.6-30.61-109.9,0
		C62.67,49.29,54.58,69,54.58,89.97s8.08,40.69,22.76,55.51c1.43,1.44,3.29,2.16,5.16,2.16c1.87,0,3.74-0.72,5.16-2.16l30.13-30.44
		l-23.51,131.4c-7.9,44.13,0.23,89.67,22.89,128.24c5.2,8.85,14.76,14.35,24.95,14.35h140.51c10.2,0,19.76-5.51,24.95-14.36
		l0.05-0.08C330.21,336.09,338.31,290.62,330.44,246.57z M100.93,111.23c-4.16-6.24-6.4-13.57-6.4-21.26c0-1.09,0.05-2.17,0.14-3.24
		l24.06,6.51L100.93,111.23z M115.05,56.02l5.99,22.58l-22.35-6.05c1.77-3.48,4.08-6.71,6.9-9.55
		C108.41,60.15,111.6,57.81,115.05,56.02z M129.88,54.97c-0.42-1.57,0.75-3.14,2.38-3.15c0.01,0,0.02,0,0.03,0
		c6.47,0,12.69,1.63,18.2,4.71c1.48,0.82,1.79,2.81,0.6,4.01l-12.46,12.59c-1.38,1.39-3.74,0.76-4.24-1.13L129.88,54.97z
		 M82.8,129.55c-8.83-11.22-13.62-25.03-13.62-39.57c0-17.03,6.56-33.04,18.48-45.08c12.3-12.43,28.46-18.64,44.63-18.64
		c13.87,0,27.74,4.58,39.17,13.73l-7.67,7.74c-9.03-6.9-19.98-10.64-31.5-10.64c-13.99,0-27.14,5.5-37.03,15.49
		S79.93,75.84,79.93,89.97c0,11.64,3.7,22.7,10.54,31.83L82.8,129.55z M288.91,97.01l4.49,25.13h-19.36l7.24-25.13H288.91z
		 M255.1,29.07c4.51,18.98,0.67,38.91-10.46,53.19h-10.3c3.29-9.58,4.28-19.87,2.77-29.89c-0.23-1.5-0.52-2.99-0.85-4.46
		C241.01,39.84,247.41,33.45,255.1,29.07z M211.92,30.62c4.39,5.34,7.53,11.3,9.38,17.54c0.09,0.47,0.21,0.93,0.39,1.38
		c2.84,10.71,1.91,22.18-3.06,32.71h-13.42C197.1,65.09,199.73,45.44,211.92,30.62z M108.66,249.07l27.21-152.06h130.2l-7.24,25.13
		H187.4c-4.03,0-7.3,3.3-7.3,7.37c0,4.07,3.27,7.37,7.3,7.37h76.88c0.01,0,0.02,0,0.03,0c0.01,0,0.03,0,0.04,0h31.68l20.05,112.31
		c2.03,11.37,2.9,22.85,2.65,34.25c-0.52,23.69-20.03,42.97-43.49,42.97H149.48c-23.45,0-42.96-19.28-43.49-42.98c0,0,0-0.01,0-0.01
		C105.74,271.99,106.61,260.48,108.66,249.07z M295.08,367.07l-0.05,0.08c-2.58,4.4-7.33,7.14-12.4,7.14H142.12
		c-5.06,0-9.81-2.73-12.39-7.13c-7.27-12.37-12.91-25.52-16.87-39.13c10.33,8.5,23.14,13.13,36.62,13.13h125.76
		c13.49,0,26.31-4.64,36.64-13.15C307.93,341.59,302.32,354.72,295.08,367.07z"/>
	<path class="st8" d="M155.17,136.88c1.92,0,3.8-0.79,5.16-2.16c1.36-1.37,2.14-3.27,2.14-5.21s-0.78-3.84-2.14-5.21
		c-1.36-1.37-3.24-2.16-5.16-2.16c-1.93,0-3.81,0.79-5.17,2.16c-1.36,1.37-2.13,3.27-2.13,5.21c0,1.95,0.77,3.84,2.13,5.21
		C151.36,136.09,153.24,136.88,155.17,136.88z"/>
</g>
</svg>
