<?xml version="1.0" encoding="utf-8"?>
<!-- Generator: Adobe Illustrator 24.0.2, SVG Export Plug-In . SVG Version: 6.00 Build 0)  -->
<svg version="1.1" id="Layer_1" xmlns="http://www.w3.org/2000/svg" xmlns:xlink="http://www.w3.org/1999/xlink" x="0px" y="0px"
	 viewBox="0 0 400 400" style="enable-background:new 0 0 400 400;" xml:space="preserve">
<style type="text/css">
	.st0{fill:#3E334C;}
	.st1{fill:#F9E3D9;}
	.st2{fill:#E54D3C;}
	.st3{fill:#89C7D1;}
	.st4{fill:#BDE0D8;}
	.st5{fill:#F8B4B9;}
	.st6{fill:#FFF1A5;}
	.st7{fill:#F15C5E;}
	.st8{fill:#010101;}
	.st9{fill:#FCD837;}
	.st10{fill:#FEEA3A;}
	.st11{fill:#C42A28;}
	.st12{fill:#68C07D;}
	.st13{fill:#D81F2A;}
	.st14{fill:#07838F;}
	.st15{fill:#6A2C91;}
	.st16{fill:#913F98;}
	.st17{fill:#AE1F59;}
	.st18{fill:#617D8C;}
	.st19{fill:#75ABDC;}
</style>
<g>
	<g id="Page-1_2_">
		<g id="_x30_32---Cup-Cake_1_">
			<path id="Shape_27_" class="st1" d="M354.02,180.02c-0.27,0.05-0.56,0.07-0.84,0.06c-11.56,0-17.89-29.74-13.23-33.17
				c-6.46-11.64-14.71-22.41-24.51-31.99c-8.98-8.63-19.3-16.07-30.64-22.07c-15.58-8.11-32.69-13.61-50.48-16.21
				c-7.45,9.73-61.2,9.73-68.65,0c-17.79,2.61-34.9,8.1-50.48,16.21c0.84,1.93-27.43,23.82-30.64,22.07
				c-9.8,9.58-18.05,20.35-24.51,31.99c-5.95,10.57-10.66,21.67-14.06,33.11c-1.9,6.26-3.41,12.61-4.53,19.02
				c5.01-0.75,10.37,22.07,14.2,24.69h288.68c3.83-2.62,9.19-25.44,14.2-24.69C357.43,192.63,355.92,186.28,354.02,180.02
				L354.02,180.02z"/>
			<g>
				<path id="Shape_26_" class="st5" d="M241.78,55.37c0.03,7.61-2.57,15.04-7.45,21.26c-7.78,10.11-20.61,16.15-34.33,16.15
					s-26.55-6.04-34.33-16.15c-4.88-6.23-7.48-13.66-7.45-21.26c0-20.66,18.7-37.41,41.78-37.41S241.78,34.71,241.78,55.37z"/>
				<path id="Shape_25_" class="st5" d="M116.45,99.02c0,10.33-9.35,18.71-20.89,18.71c-3.89-0.01-7.69-0.98-11-2.81
					c-7.85-4.3-11.64-12.7-9.32-20.68c2.32-7.98,10.2-13.66,19.4-13.98c9.2-0.32,17.55,4.79,20.56,12.58
					C116.04,94.82,116.46,96.91,116.45,99.02z"/>
				<ellipse id="Oval_3_" class="st5" cx="137.34" cy="161.37" rx="20.89" ry="18.71"/>
				<path id="Shape_24_" class="st5" d="M60.05,146.91c-5.95,10.57-10.66,21.67-14.06,33.11c-9.11-0.29-16.96-5.85-19.38-13.72
					s1.13-16.24,8.78-20.68S53.02,141.7,60.05,146.91z"/>
				<path id="Shape_23_" class="st5" d="M325.33,99.02c0,6.48-3.74,12.49-9.89,15.9c-8.98-8.63-19.3-16.07-30.64-22.07
					c3.34-8.61,13.14-13.8,23.18-12.27C318.02,82.1,325.35,89.9,325.33,99.02z"/>
				<ellipse id="Oval_2_" class="st5" cx="262.66" cy="161.37" rx="20.89" ry="18.71"/>
				<path id="Shape_22_" class="st5" d="M374.07,161.37c0.01,10.03-8.86,18.28-20.05,18.64c-0.27,0.05-0.56,0.07-0.84,0.06
					c-11.54,0-20.89-8.38-20.89-18.71s9.35-18.71,20.89-18.71C364.72,142.67,374.07,151.04,374.07,161.37z"/>
			</g>
			<path id="Shape_21_" class="st4" d="M381.94,210.07c-14.83,13.59-51.94,55.25-56.19,135.5c-0.51,10.46-8.23,19.54-19.36,22.76
				c-18.03,5.24-50.97,11.29-106.39,11.29s-88.36-6.05-106.39-11.29c-11.13-3.22-18.85-12.3-19.36-22.76
				c-4.25-80.25-41.36-121.9-56.19-135.5c2.34-0.09,4.61-0.76,6.54-1.93l9.05-6.24c2.28-1.55,4.97-2.53,7.8-2.87
				c4.97-0.8,10.1,0.24,14.2,2.87l9.12,6.24c6.57,4.18,15.37,4.18,21.93,0l9.12-6.24c6.57-4.18,15.37-4.18,21.93,0l9.12,6.24
				c6.57,4.18,15.37,4.18,21.93,0l9.12-6.24c6.59-4.18,15.41-4.18,22,0l9.05,6.24c6.59,4.18,15.41,4.18,22,0l9.05-6.24
				c6.59-4.18,15.41-4.18,22,0l9.12,6.24c6.57,4.18,15.37,4.18,21.93,0l9.12-6.24c6.57-4.18,15.37-4.18,21.93,0l9.12,6.24
				c6.57,4.18,15.37,4.18,21.93,0l9.12-6.24c4.11-2.63,9.23-3.67,14.2-2.87c2.83,0.33,5.52,1.32,7.8,2.87l9.05,6.24
				C377.33,209.32,379.6,209.99,381.94,210.07L381.94,210.07z"/>
			<path id="Shape_20_" class="st3" d="M130.37,348.44c-3.85,0-6.96-2.79-6.96-6.24c0-57.37-32.59-88.94-32.91-89.25
				c-1.71-1.62-2.32-3.93-1.61-6.07c0.71-2.14,2.64-3.77,5.06-4.28c2.42-0.52,4.96,0.16,6.67,1.78c1.5,1.43,36.71,35.53,36.71,97.82
				C137.34,345.65,134.22,348.44,130.37,348.44L130.37,348.44z"/>
			<path id="Shape_19_" class="st3" d="M269.63,348.44c-3.85,0-6.96-2.79-6.96-6.24c0-62.29,35.22-96.39,36.71-97.82
				c2.64-2.51,7.05-2.62,9.85-0.26c2.8,2.36,2.93,6.31,0.29,8.82c-0.5,0.49-32.92,32.34-32.92,89.26
				C276.59,345.65,273.47,348.44,269.63,348.44z"/>
			<path id="Shape_18_" class="st3" d="M200,348.44c-3.85,0-6.96-2.79-6.96-6.24v-93.53c0-3.44,3.12-6.24,6.96-6.24
				s6.96,2.79,6.96,6.24v93.53C206.96,345.65,203.85,348.44,200,348.44z"/>
		</g>
	</g>
</g>
</svg>
