<?xml version="1.0" encoding="utf-8"?>
<!-- Generator: Adobe Illustrator 24.0.2, SVG Export Plug-In . SVG Version: 6.00 Build 0)  -->
<svg version="1.1" id="Layer_1" xmlns="http://www.w3.org/2000/svg" xmlns:xlink="http://www.w3.org/1999/xlink" x="0px" y="0px"
	 viewBox="0 0 400 400" style="enable-background:new 0 0 400 400;" xml:space="preserve">
<style type="text/css">
	.st0{fill:#3E334C;}
	.st1{fill:#F9E3D9;}
	.st2{fill:#E54D3C;}
	.st3{fill:#89C7D1;}
	.st4{fill:#BDE0D8;}
	.st5{fill:#F8B4B9;}
	.st6{fill:#FFF1A5;}
	.st7{fill:#F15C5E;}
	.st8{fill:#010101;}
	.st9{fill:#FCD837;}
	.st10{fill:#FEEA3A;}
	.st11{fill:#C42A28;}
	.st12{fill:#68C07D;}
	.st13{fill:#D81F2A;}
	.st14{fill:#07838F;}
	.st15{fill:#6A2C91;}
	.st16{fill:#913F98;}
	.st17{fill:#AE1F59;}
	.st18{fill:#617D8C;}
	.st19{fill:#75ABDC;}
</style>
<g>
	<polygon class="st19" points="307.8,119.8 293.77,253.3 289.14,297.45 286.22,325.46 281.59,369.55 279.31,390.92 115.5,390.92 
		103.46,276.4 98.26,227.15 94.98,195.84 89.78,146.59 87.01,119.8 	"/>
	<polygon class="st3" points="279.32,119.8 267.09,253.3 263.06,297.45 260.52,325.46 256.49,369.55 254.5,390.92 111.82,390.92 
		101.34,276.4 96.81,227.15 93.95,195.84 89.43,146.59 87.01,119.8 	"/>
	<path class="st8" d="M279.31,397.38H115.5c-3.68,0-6.74-2.53-7.09-5.84l-28.5-271.13c-0.36-3.55,2.52-6.7,6.44-7.03
		c0.22-0.02,0.43-0.03,0.66-0.03h220.8c3.93-0.01,7.12,2.88,7.12,6.44c0,0.21-0.01,0.42-0.04,0.63L286.4,391.55
		C286.05,394.85,282.98,397.38,279.31,397.38z M121.98,384.47h150.88l27.13-258.21H94.83L121.98,384.47z"/>
	<g>
		<path class="st5" d="M94.13,87.52h206.55c11.8,0,21.37,8.67,21.37,19.37v6.46c0,3.56-3.19,6.46-7.12,6.46H79.88
			c-3.93,0-7.12-2.89-7.12-6.46v-6.46C72.76,96.19,82.33,87.52,94.13,87.52z"/>
		<path class="st5" d="M286.44,87.52L286.44,87.52c0-14.26-12.76-25.82-28.49-25.82H136.86c-15.73,0-28.49,11.56-28.49,25.82l0,0"/>
	</g>
	<g>
		<path class="st1" d="M94.13,87.52h178.06c11.8,0,21.37,8.67,21.37,19.37v6.46c0,3.56-3.19,6.46-7.12,6.46H79.88
			c-3.93,0-7.12-2.89-7.12-6.46v-6.46C72.76,96.19,82.33,87.52,94.13,87.52z"/>
		<path class="st1" d="M262.02,87.52L262.02,87.52c0.84-13.43-10.43-24.96-25.23-25.82H129.54c-14.81,0.87-26.08,12.39-25.23,25.82
			l0,0"/>
	</g>
	<path class="st8" d="M314.93,126.26H79.88c-7.86-0.01-14.24-5.78-14.24-12.91v-6.46c0.01-14.25,12.76-25.81,28.49-25.82h206.55
		c15.73,0.01,28.48,11.57,28.49,25.82v6.46C329.16,120.47,322.79,126.25,314.93,126.26z M94.13,93.98
		c-7.86,0.01-14.24,5.78-14.24,12.91v6.46h235.04v-6.46c-0.01-7.13-6.38-12.9-14.24-12.91C300.68,93.98,94.13,93.98,94.13,93.98z"/>
	<path class="st8" d="M286.44,93.98c-3.93,0-7.12-2.89-7.12-6.45c0,0,0,0,0-0.01c-0.01-10.69-9.57-19.35-21.37-19.37H136.86
		c-11.79,0.01-21.35,8.68-21.37,19.37c0,3.56-3.19,6.46-7.12,6.46s-7.12-2.89-7.12-6.46c0.02-17.82,15.95-32.26,35.61-32.28h121.08
		c19.66,0.02,35.59,14.46,35.61,32.28C293.56,91.09,290.37,93.98,286.44,93.98C286.44,93.98,286.44,93.98,286.44,93.98z"/>
	<g>
		<polygon class="st1" points="293.77,253.3 289.14,297.45 94.98,195.84 94.84,194.55 89.78,146.59 269.48,240.58 		"/>
		<polygon class="st1" points="286.22,325.46 281.59,369.55 103.46,276.4 103.32,275.05 98.26,227.15 261.93,312.75 		"/>
	</g>
	<g>
		<polygon class="st5" points="269.48,240.58 265,283.57 94.84,194.55 89.78,146.59 		"/>
		<polygon class="st5" points="261.93,312.75 257.45,355.68 103.32,275.05 98.26,227.15 		"/>
	</g>
	<path class="st8" d="M289.14,303.9c-1.25,0-2.48-0.3-3.56-0.87L91.42,201.43c-1.99-1.05-3.31-2.9-3.53-4.98l-5.2-49.25
		c-0.38-3.55,2.49-6.7,6.4-7.04c1.47-0.13,2.96,0.16,4.24,0.83l204,106.71c2.41,1.27,3.79,3.69,3.53,6.2l-4.63,44.15
		C295.88,301.37,292.82,303.9,289.14,303.9L289.14,303.9z M101.73,191.91l181.38,94.92l3.14-30.02L98.2,158.44L101.73,191.91z"/>
	<path class="st8" d="M281.6,376.01c-1.25,0-2.48-0.3-3.56-0.87L99.9,281.99c-1.99-1.05-3.31-2.9-3.53-4.98l-5.19-49.25
		c-0.38-3.55,2.49-6.7,6.4-7.04c1.47-0.13,2.96,0.16,4.24,0.83l187.96,98.31c2.41,1.27,3.79,3.69,3.53,6.2l-4.62,44.09
		C288.34,373.48,285.27,376.01,281.6,376.01L281.6,376.01z M110.2,272.47l165.36,86.47l3.14-29.96L106.66,239L110.2,272.47z"/>
	<path class="st8" d="M279.31,152.08h-71.22c-3.93,0-7.12-2.89-7.12-6.46c0-3.56,3.19-6.46,7.12-6.46h71.22
		c3.93,0,7.12,2.89,7.12,6.46C286.44,149.19,283.25,152.08,279.31,152.08z"/>
	<path class="st8" d="M179.6,152.08h-14.24c-3.93,0-7.12-2.89-7.12-6.46c0-3.56,3.19-6.46,7.12-6.46h14.24
		c3.93,0,7.12,2.89,7.12,6.46C186.72,149.19,183.54,152.08,179.6,152.08z"/>
	<path class="st8" d="M193.84,68.16c-3.93,0-7.12-2.89-7.12-6.45c0,0,0,0,0-0.01V46.58c-0.21-11.66,5.51-22.77,15.49-30.13
		c7.91-5.68,18.3-7.69,28.08-5.45l93.53,21.92c3.81,0.89,6.1,4.42,5.11,7.86c-0.98,3.45-4.87,5.53-8.67,4.63l-93.53-21.92
		c-5.52-1.27-11.38-0.1-15.8,3.16c-6.51,4.91-10.19,12.25-9.96,19.93V61.7C200.97,65.27,197.78,68.16,193.84,68.16
		C193.85,68.16,193.85,68.16,193.84,68.16z"/>
</g>
</svg>
