<?xml version="1.0" encoding="utf-8"?>
<!-- Generator: Adobe Illustrator 24.0.2, SVG Export Plug-In . SVG Version: 6.00 Build 0)  -->
<svg version="1.1" id="Layer_1" xmlns="http://www.w3.org/2000/svg" xmlns:xlink="http://www.w3.org/1999/xlink" x="0px" y="0px"
	 viewBox="0 0 400 400" style="enable-background:new 0 0 400 400;" xml:space="preserve">
<style type="text/css">
	.st0{fill:#3E334C;}
	.st1{fill:#F9E3D9;}
	.st2{fill:#E54D3C;}
	.st3{fill:#89C7D1;}
	.st4{fill:#BDE0D8;}
	.st5{fill:#F8B4B9;}
	.st6{fill:#FFF1A5;}
	.st7{fill:#F15C5E;}
	.st8{fill:#010101;}
	.st9{fill:#FCD837;}
	.st10{fill:#FEEA3A;}
	.st11{fill:#C42A28;}
	.st12{fill:#68C07D;}
	.st13{fill:#D81F2A;}
	.st14{fill:#07838F;}
	.st15{fill:#6A2C91;}
	.st16{fill:#913F98;}
	.st17{fill:#AE1F59;}
	.st18{fill:#617D8C;}
	.st19{fill:#75ABDC;}
</style>
<g>
	<path class="st9" d="M161.87,139.46c-0.02,5.25,0.77,10.49,2.35,15.53H59.81c-1.58-5.04-2.37-10.27-2.35-15.53
		c-0.01-28.78,22.96-52.84,53.05-55.59c1.89-0.23,3.78-0.33,5.68-0.31c22.01,0,42.17,11.73,52.2,30.37
		C164.09,121.81,161.85,130.57,161.87,139.46z"/>
	<path class="st1" d="M158.6,143.91c-0.02,5.25,0.77,10.49,2.35,15.53H56.55c-1.58-5.04-2.37-10.27-2.35-15.53
		c-0.01-28.78,22.96-52.84,53.05-55.59c1.89-0.23,3.78-0.33,5.68-0.31c22.01,0,42.17,11.73,52.2,30.37
		C160.83,126.26,158.59,135.02,158.6,143.91z"/>
	<path class="st14" d="M292.37,154.99c0.21,65.38-55.29,118.54-123.98,118.75c-15.84,0.01-31.52-2.89-46.2-8.57
		c-47.11-18.19-77.9-61.79-77.78-110.18H292.37z"/>
	<path class="st4" d="M266.07,154.99c-3.67,62.58-57.94,111.59-123.78,111.8c-6.73,0-13.46-0.54-20.1-1.62
		c-47.11-18.19-77.9-61.79-77.78-110.18H266.07z"/>
	<polyline class="st14" points="187.95,273 187.95,353.74 148.8,353.74 148.8,273 	"/>
	<polyline class="st4" points="168.39,273 168.39,353.74 148.81,353.74 148.81,273 	"/>
	<path class="st14" d="M116.18,353.74h104.4c7.21,0,13.05,5.56,13.05,12.42l0,0c0,6.86-5.84,12.42-13.05,12.42h-104.4
		c-7.21,0-13.05-5.56-13.05-12.42l0,0C103.13,359.3,108.97,353.74,116.18,353.74z"/>
	<path class="st4" d="M116.19,353.74h78.3c7.21,0,13.05,5.56,13.05,12.42l0,0c0,6.86-5.84,12.42-13.05,12.42h-78.3
		c-7.21,0-13.05-5.56-13.05-12.42l0,0C103.14,359.3,108.99,353.74,116.19,353.74z"/>
	<path class="st8" d="M168.39,279.95c-72.26-0.29-130.64-56.19-130.5-124.97c0-3.43,2.92-6.21,6.52-6.21c0,0,0,0,0.01,0h247.96
		c3.6,0,6.52,2.78,6.52,6.2c0,0,0,0,0,0.01C299.03,223.77,240.65,279.67,168.39,279.95z M51.11,161.2
		c3.15,61.65,58.21,109.2,122.99,106.2c60.36-2.79,108.64-48.74,111.57-106.2H51.11L51.11,161.2z"/>
	<path class="st8" d="M187.95,359.95H148.8c-3.6,0-6.52-2.78-6.52-6.2c0,0,0,0,0-0.01V273c0-3.43,2.92-6.21,6.52-6.21
		c3.6,0,6.52,2.78,6.52,6.21v74.53h26.1V273c0-3.43,2.92-6.21,6.52-6.21c3.6,0,6.52,2.78,6.52,6.21v80.74
		C194.48,357.17,191.56,359.95,187.95,359.95L187.95,359.95z"/>
	<path class="st8" d="M220.58,384.79h-104.4c-10.81,0-19.58-8.34-19.58-18.63s8.76-18.63,19.58-18.63h104.4
		c10.81,0,19.58,8.34,19.58,18.63S231.39,384.79,220.58,384.79z M116.18,359.95c-3.6,0-6.52,2.78-6.52,6.21s2.92,6.21,6.52,6.21
		h104.4c3.6,0,6.52-2.78,6.52-6.21s-2.92-6.21-6.52-6.21H116.18z"/>
	<path class="st8" d="M93.12,123.72c-3.6,0-6.52-2.78-6.52-6.21c0-1.65,0.69-3.22,1.91-4.39c7.32-7.01,17.29-10.94,27.67-10.93
		c3.6,0,6.52,2.78,6.52,6.21c0,3.43-2.92,6.21-6.52,6.21c-6.92-0.01-13.57,2.61-18.45,7.29C96.51,123.07,94.85,123.72,93.12,123.72z
		"/>
	<path class="st15" d="M278.54,130.21v24.78H164.21c-1.58-5.04-2.37-10.27-2.35-15.53c-0.01-8.89,2.23-17.65,6.52-25.53
		c4.01-7.41,9.69-13.88,16.64-18.94c10.21-7.42,22.71-11.43,35.56-11.43c1.9-0.02,3.79,0.08,5.68,0.31
		C252.7,86.29,274.13,105.29,278.54,130.21z"/>
	<path class="st16" d="M264.42,133.31v15.47h-94.75c-1.58-5.04-2.37-10.27-2.35-15.53c-0.01-8.89,2.23-17.65,6.52-25.53
		c4.01-7.41,9.69-13.88,16.64-18.94c5.2-1.4,10.58-2.11,15.99-2.11c1.9-0.02,3.79,0.08,5.68,0.31
		C238.59,89.39,260.02,108.39,264.42,133.31z"/>
	<path class="st8" d="M278.54,161.2H164.21c-2.88,0-5.42-1.8-6.25-4.43c-1.75-5.62-2.64-11.45-2.62-17.31
		c0.06-34.28,29.24-62.05,65.25-62.11c2.2-0.02,4.39,0.11,6.57,0.37c29.29,2.71,53.01,23.83,57.81,51.46
		c0.06,0.34,0.09,0.68,0.09,1.02v24.78C285.06,158.42,282.14,161.2,278.54,161.2L278.54,161.2z M169.32,148.78h102.69v-18.04
		c-4.07-21.94-23.04-38.59-46.35-40.68c-1.68-0.21-3.37-0.3-5.07-0.29c-28.81,0.06-52.14,22.27-52.2,49.69
		C168.38,142.58,168.69,145.71,169.32,148.78z"/>
	<path class="st8" d="M203.61,119.15c-3.6,0-6.53-2.78-6.53-6.21c0-2.16,1.18-4.17,3.12-5.3c6.14-3.57,13.19-5.45,20.38-5.45
		c3.6,0,6.52,2.78,6.52,6.21s-2.92,6.21-6.52,6.21c-4.79-0.01-9.49,1.25-13.58,3.63C205.98,118.84,204.8,119.16,203.61,119.15z"/>
	<path class="st8" d="M164.21,161.2H59.81c-2.88,0-5.42-1.8-6.25-4.43c-1.75-5.62-2.64-11.45-2.62-17.31
		c-0.16-32.03,25.45-58.86,58.96-61.77c2.09-0.25,4.19-0.36,6.29-0.34c24.46-0.04,46.88,13,58,33.74c0.97,1.79,0.97,3.92-0.01,5.71
		c-3.8,7.01-5.79,14.78-5.79,22.66c-0.03,4.65,0.67,9.29,2.08,13.74c1.03,3.29-0.93,6.75-4.38,7.73
		C165.47,161.11,164.85,161.2,164.21,161.2z M64.91,148.78h91.16c-1.87-11.77-0.15-23.8,4.97-34.66
		c-9.36-15.11-26.43-24.38-44.86-24.35c-1.6-0.02-3.2,0.06-4.78,0.25c-26.9,2.25-47.51,23.73-47.42,49.44
		C63.98,142.58,64.29,145.71,64.91,148.78z"/>
	<path class="st17" d="M227.12,74.24c-0.01,3.22-0.3,6.45-0.85,9.63c-1.89-0.23-3.78-0.33-5.68-0.31c-2.21,0-4.4,0.12-6.59,0.37
		c-16.35,1.7-31.16,9.92-40.78,22.61c-1.85,2.32-3.46,4.8-4.83,7.39c-0.46-0.81-0.91-1.62-1.44-2.42
		c-10.44-17.3-29.81-27.96-50.77-27.95c-1.9-0.02-3.79,0.08-5.68,0.31c-0.55-3.18-0.84-6.4-0.85-9.63c0-30.87,26.29-55.9,58.73-55.9
		S227.12,43.37,227.12,74.24z"/>
	<path class="st5" d="M217.3,76.19c-16.35,1.7-31.16,9.92-40.78,22.61c-2.22,1.5-4.31,3.16-6.26,4.97
		c-10.44-17.3-29.81-27.96-50.77-27.95c-1.9-0.02-3.79,0.08-5.68,0.31c-0.55-3.18-0.84-6.4-0.85-9.63
		c-0.01-11.79,3.92-23.27,11.22-32.79c26.21-18.14,62.9-12.63,81.96,12.32C212.87,54.83,216.75,65.31,217.3,76.19z"/>
	<path class="st8" d="M168.39,120.14c-2.45,0-4.69-1.3-5.8-3.37c-8.89-16.6-26.83-27.03-46.4-27c-1.6-0.02-3.2,0.06-4.78,0.25
		c-3.52,0.48-6.79-1.83-7.33-5.17c-0.61-3.51-0.91-7.06-0.93-10.61c0-34.3,29.21-62.11,65.25-62.11s65.25,27.81,65.25,62.11
		c-0.01,3.55-0.33,7.1-0.93,10.61c-0.54,3.35-3.82,5.65-7.33,5.17c-1.59-0.19-3.18-0.27-4.78-0.25c-19.57-0.03-37.51,10.4-46.4,27
		C173.08,118.84,170.84,120.14,168.39,120.14z M116.29,77.35c20.52-0.01,39.84,9.21,52.1,24.88c12.25-15.66,31.58-24.89,52.1-24.88
		c0.07-1.06,0.1-2.09,0.1-3.11c0-27.44-23.37-49.69-52.2-49.69s-52.2,22.25-52.2,49.69C116.19,75.26,116.23,76.29,116.29,77.35z"/>
	<path class="st8" d="M145.32,58.51c-3.6,0-6.52-2.78-6.52-6.21c0-1.65,0.69-3.22,1.91-4.39c7.32-7.01,17.28-10.94,27.67-10.93
		c3.6,0,6.52,2.78,6.52,6.21c0,3.43-2.92,6.21-6.52,6.21c-6.92-0.01-13.57,2.61-18.45,7.29C148.71,57.85,147.05,58.51,145.32,58.51z
		"/>
	<g>
		<path class="st18" d="M354.29,58.16c-37.39,11.93-55.01,62.92-62.77,96.83h-14.55c1.59-5.04,2.38-10.27,2.35-15.53
			c0.01-3.1-0.25-6.19-0.78-9.25c8.09-35.65,27.14-90.18,68.58-98.38c6.1-1.2,12.29,1.66,15.07,6.96l0.52,1.06
			c3.33,6.53,0.48,14.39-6.38,17.56C355.68,57.7,354.99,57.96,354.29,58.16z"/>
		<path class="st18" d="M291.51,154.99c7.77-33.91,25.38-84.9,62.77-96.83c7.29-2.1,11.43-9.43,9.21-16.38
			c-0.21-0.66-0.48-1.32-0.8-1.94l-0.52-1.06c-2.79-5.3-8.97-8.15-15.07-6.96c-41.43,8.2-60.49,62.73-68.58,98.38"/>
	</g>
	<path class="st8" d="M291.52,161.2h-14.55c-3.6,0-6.52-2.78-6.52-6.21c0-0.61,0.09-1.22,0.28-1.8c1.4-4.45,2.09-9.08,2.07-13.73
		c0.01-2.76-0.23-5.52-0.69-8.24c-0.14-0.77-0.12-1.56,0.06-2.33c9.6-42.32,30.18-94.56,73.63-103.15
		c8.98-1.76,18.1,2.43,22.23,10.23l0.61,1.21c2.55,4.89,2.75,10.58,0.55,15.62c-2.34,5.34-7.02,9.45-12.8,11.25
		c-35.05,11.19-51.67,62.61-58.47,92.26C297.24,159.16,294.59,161.2,291.52,161.2z M285.11,148.78h1.19
		c9.44-38.48,28.41-84.54,65.92-96.51l0.03-0.01c2.19-0.66,3.96-2.2,4.86-4.21c0.77-1.75,0.69-3.73-0.22-5.42l-0.6-1.2
		c-1.49-2.7-4.67-4.14-7.8-3.54c-38.11,7.55-55.97,60.67-63.32,92.5c0.46,3.01,0.68,6.03,0.68,9.07
		C285.85,142.58,285.6,145.7,285.11,148.78L285.11,148.78z"/>
	<path class="st8" d="M291.51,161.2c-3.6,0.01-6.52-2.76-6.53-6.18c0-0.45,0.05-0.91,0.15-1.35c9.02-39.37,27.97-88.92,67.08-101.4
		c2.2-0.66,3.98-2.2,4.89-4.22c0.77-1.75,0.69-3.73-0.22-5.42l-0.6-1.2c-1.48-2.7-4.66-4.14-7.8-3.53
		c-38.56,7.63-56.38,61.94-63.57,93.62c-0.76,3.35-4.23,5.48-7.75,4.76c-3.52-0.72-5.76-4.03-5-7.38
		c9.6-42.32,30.18-94.56,73.63-103.15c8.98-1.77,18.1,2.43,22.23,10.23l0.61,1.21c2.55,4.89,2.75,10.58,0.55,15.62
		c-2.35,5.35-7.03,9.46-12.82,11.25c-35.03,11.17-51.66,62.59-58.45,92.26C297.23,159.16,294.58,161.19,291.51,161.2z"/>
</g>
</svg>
