<?xml version="1.0" encoding="utf-8"?>
<!-- Generator: Adobe Illustrator 24.0.2, SVG Export Plug-In . SVG Version: 6.00 Build 0)  -->
<svg version="1.1" id="Layer_1" xmlns="http://www.w3.org/2000/svg" xmlns:xlink="http://www.w3.org/1999/xlink" x="0px" y="0px"
	 viewBox="0 0 400 400" style="enable-background:new 0 0 400 400;" xml:space="preserve">
<style type="text/css">
	.st0{fill:#3E334C;}
	.st1{fill:#F9E3D9;}
	.st2{fill:#E54D3C;}
	.st3{fill:#89C7D1;}
	.st4{fill:#BDE0D8;}
	.st5{fill:#F8B4B9;}
	.st6{fill:#FFF1A5;}
	.st7{fill:#F15C5E;}
	.st8{fill:#010101;}
	.st9{fill:#FCD837;}
	.st10{fill:#FEEA3A;}
	.st11{fill:#C42A28;}
	.st12{fill:#68C07D;}
	.st13{fill:#D81F2A;}
	.st14{fill:#07838F;}
	.st15{fill:#6A2C91;}
	.st16{fill:#913F98;}
	.st17{fill:#AE1F59;}
	.st18{fill:#617D8C;}
	.st19{fill:#75ABDC;}
</style>
<g>
	<path class="st1" d="M367.4,148.4c0.05,64.24-51.34,116.36-114.77,116.4s-114.89-52-114.93-116.24
		c-0.03-39.57,19.81-76.45,52.66-97.87c18.51-12.19,40.12-18.66,62.19-18.61c63.42-0.02,114.83,52.03,114.85,116.26
		C367.4,148.36,367.4,148.38,367.4,148.4z"/>
	<path class="st5" d="M344.43,160.04c0.05,39.53-19.8,76.37-52.66,97.71c-59.59,21.96-125.48-9.17-147.15-69.52
		c-18.34-51.04,0.65-108.13,45.74-137.53C250,28.77,315.9,59.97,337.54,120.38C342.09,133.09,344.42,146.51,344.43,160.04z"/>
	<path class="st3" d="M252.55,270.54c-66.6,0-120.59-54.68-120.59-122.14S185.95,26.27,252.55,26.27S373.14,80.95,373.14,148.4
		C373.07,215.83,319.12,270.47,252.55,270.54z M252.55,37.9c-60.26,0-109.11,49.48-109.11,110.51s48.85,110.51,109.11,110.51
		s109.11-49.48,109.11-110.51C361.59,87.41,312.78,37.97,252.55,37.9z"/>
	<path class="st3" d="M344.43,154.22c-3.17,0-5.74-2.6-5.74-5.81v-0.01c-0.05-48.16-38.58-87.19-86.14-87.24
		c-3.17,0-5.74-2.61-5.74-5.82c0-3.21,2.57-5.82,5.74-5.82c53.89,0.06,97.57,44.29,97.62,98.87
		C350.17,151.61,347.61,154.22,344.43,154.22C344.44,154.22,344.43,154.22,344.43,154.22z"/>
	<path class="st4" d="M179.85,238.44L53.91,365.99c-4.47,4.53-11.72,4.53-16.19,0s-4.47-11.87,0-16.4l0,0l125.93-127.55"/>
	<path class="st3" d="M45.82,375.25c-4.58,0.01-8.98-1.86-12.19-5.18c-6.7-6.73-6.75-17.69-0.11-24.47c0.05-0.05,0.1-0.1,0.15-0.16
		l125.91-127.52c2.24-2.27,5.88-2.27,8.12,0c2.24,2.27,2.24,5.96,0,8.22l0,0L41.78,353.7c-2.23,2.25-2.25,5.91-0.02,8.18
		c2.22,2.26,5.83,2.27,8.07,0.02l125.96-127.57c2.24-2.27,5.88-2.27,8.12,0c2.24,2.27,2.24,5.96,0,8.22L57.97,370.1
		C54.77,373.4,50.39,375.26,45.82,375.25z"/>
	<path id="SVGCleanerId_0_3_" class="st8" d="M182.15,247.28c-1.67,0-3.24-0.73-4.34-2c-33.73-39.35-29.64-98.93,9.14-133.18
		c27.9-24.59,70.19-21.62,94.47,6.63c0.01,0.01,0.01,0.01,0.01,0.01c17.59,20.52,15.46,51.58-4.76,69.44
		c-14.9,13.11-37.46,11.52-50.43-3.54c-9.69-11.28-8.53-28.38,2.61-38.2c0.01-0.01,0.01-0.01,0.01-0.01
		c8.52-7.51,21.43-6.6,28.83,2.02l0.01,0.01c5.8,6.77,5.09,17.02-1.57,22.91c-2.39,2.11-6.02,1.87-8.1-0.55
		c-2.08-2.42-1.84-6.09,0.55-8.21c0.01-0.01,0.01-0.01,0.02-0.02c1.89-1.67,2.09-4.58,0.44-6.5c-1.56-1.82-3.76-2.94-6.13-3.09
		c-2.37-0.15-4.7,0.64-6.5,2.21c-6.36,5.59-7.04,15.34-1.52,21.79c0.01,0.01,0.01,0.01,0.02,0.02c8.81,10.22,24.12,11.29,34.23,2.4
		c15.46-13.63,17.09-37.37,3.64-53.03l-0.01-0.01c-20.13-23.39-55.15-25.85-78.28-5.5c-34,30.03-37.58,82.27-8.01,116.78
		c2.08,2.43,1.83,6.1-0.56,8.21C184.88,246.77,183.53,247.28,182.15,247.28z"/>
	<g>
		<path id="SVGCleanerId_0_2_" class="st3" d="M182.15,247.28c-1.67,0-3.24-0.73-4.34-2c-33.73-39.35-29.64-98.93,9.14-133.18
			c27.9-24.59,70.19-21.62,94.47,6.63c0.01,0.01,0.01,0.01,0.01,0.01c17.59,20.52,15.46,51.58-4.76,69.44
			c-14.9,13.11-37.46,11.52-50.43-3.54c-9.69-11.28-8.53-28.38,2.61-38.2c0.01-0.01,0.01-0.01,0.01-0.01
			c8.52-7.51,21.43-6.6,28.83,2.02l0.01,0.01c5.8,6.77,5.09,17.02-1.57,22.91c-2.39,2.11-6.02,1.87-8.1-0.55
			c-2.08-2.42-1.84-6.09,0.55-8.21c0.01-0.01,0.01-0.01,0.02-0.02c1.89-1.67,2.09-4.58,0.44-6.5c-1.56-1.82-3.76-2.94-6.13-3.09
			c-2.37-0.15-4.7,0.64-6.5,2.21c-6.36,5.59-7.04,15.34-1.52,21.79c0.01,0.01,0.01,0.01,0.02,0.02c8.81,10.22,24.12,11.29,34.23,2.4
			c15.46-13.63,17.09-37.37,3.64-53.03l-0.01-0.01c-20.13-23.39-55.15-25.85-78.28-5.5c-34,30.03-37.58,82.27-8.01,116.78
			c2.08,2.43,1.83,6.1-0.56,8.21C184.88,246.77,183.53,247.28,182.15,247.28z"/>
	</g>
</g>
</svg>
