<?xml version="1.0" encoding="utf-8"?>
<!-- Generator: Adobe Illustrator 24.0.2, SVG Export Plug-In . SVG Version: 6.00 Build 0)  -->
<svg version="1.1" id="Layer_1" xmlns="http://www.w3.org/2000/svg" xmlns:xlink="http://www.w3.org/1999/xlink" x="0px" y="0px"
	 viewBox="0 0 400 400" style="enable-background:new 0 0 400 400;" xml:space="preserve">
<style type="text/css">
	.st0{fill:#3E334C;}
	.st1{fill:#F9E3D9;}
	.st2{fill:#E54D3C;}
	.st3{fill:#89C7D1;}
	.st4{fill:#BDE0D8;}
	.st5{fill:#F8B4B9;}
	.st6{fill:#FFF1A5;}
	.st7{fill:#F15C5E;}
	.st8{fill:#010101;}
	.st9{fill:#FCD837;}
	.st10{fill:#FEEA3A;}
	.st11{fill:#C42A28;}
	.st12{fill:#68C07D;}
	.st13{fill:#D81F2A;}
	.st14{fill:#07838F;}
	.st15{fill:#6A2C91;}
	.st16{fill:#913F98;}
	.st17{fill:#AE1F59;}
	.st18{fill:#617D8C;}
	.st19{fill:#75ABDC;}
</style>
<g>
	<path class="st5" d="M269.09,78.73c-0.26,6.31-1.73,12.53-4.34,18.38c-2.02,4.6-4.72,8.92-8.05,12.86l-0.07,0.06l-7.64,2.55
		c-4.96,1.67-10.2,2.53-15.49,2.55h-0.76c-8.39-0.12-16.57-2.43-23.54-6.65c-13.83-8.32-31.69-8.88-46.12-1.43l-5.3,2.73
		c-7.55-8.96-11.86-19.81-12.32-31.06C136,81.49,126.81,84.98,118,89.16c-41.71,19.69-69.04,52.86-69.04,90.43
		c0.02,9.2,1.67,18.35,4.89,27.08H63.9l9.77,8.82c5.35,4.84,14.03,4.84,19.39,0.02c0.01-0.01,0.01-0.01,0.02-0.02l1.24-1.12
		c5.35-4.84,14.03-4.84,19.39-0.02c0.01,0.01,0.01,0.01,0.02,0.02l1.24,1.12c5.35,4.84,14.03,4.84,19.39,0.02
		c0.01-0.01,0.01-0.01,0.02-0.02l1.24-1.12c5.35-4.84,14.03-4.84,19.39-0.02c0.01,0.01,0.01,0.01,0.02,0.02l1.24,1.12
		c5.35,4.84,14.03,4.84,19.39,0.02c0.01-0.01,0.01-0.01,0.02-0.02l1.24-1.12c5.35-4.84,14.03-4.84,19.39-0.02
		c0.01,0.01,0.01,0.01,0.02,0.02l1.24,1.12c5.35,4.84,14.03,4.84,19.39,0.02c0.01-0.01,0.01-0.01,0.02-0.02l1.24-1.12
		c5.35-4.84,14.03-4.84,19.39-0.02c0.01,0.01,0.01,0.01,0.02,0.02l1.24,1.12c5.35,4.84,14.03,4.84,19.39,0.02
		c0.01-0.01,0.01-0.01,0.02-0.02l1.24-1.12c5.35-4.84,14.03-4.84,19.39-0.02c0.01,0.01,0.01,0.01,0.02,0.02l1.24,1.12
		c5.35,4.84,14.03,4.84,19.39,0.02c0.01-0.01,0.01-0.01,0.02-0.02l1.24-1.12c5.35-4.84,14.03-4.84,19.39-0.02
		c0.01,0.01,0.01,0.01,0.02,0.02l1.24,1.12c0.48,0.45,1.01,0.84,1.58,1.18c5.44,3.66,13.04,3.16,17.83-1.18l9.77-8.82h10.05
		c3.21-8.73,4.87-17.88,4.89-27.08C365.6,134.26,325.81,95.37,269.09,78.73z"/>
	<path class="st1" d="M338.06,189.53c-0.02,9.2-1.67,18.35-4.89,27.08h-10.05l-0.07,0.06c-0.57-0.34-1.11-0.73-1.58-1.18l-1.24-1.12
		c-5.35-4.84-14.03-4.84-19.39-0.02c-0.01,0.01-0.01,0.01-0.02,0.02l-1.24,1.12c-5.35,4.84-14.03,4.84-19.39,0.02
		c-0.01-0.01-0.01-0.01-0.02-0.02l-1.24-1.12c-5.35-4.84-14.03-4.84-19.39-0.02c-0.01,0.01-0.01,0.01-0.02,0.02l-1.24,1.12
		c-5.35,4.84-14.03,4.84-19.39,0.02c-0.01-0.01-0.01-0.01-0.02-0.02l-1.24-1.12c-5.35-4.84-14.03-4.84-19.39-0.02
		c-0.01,0.01-0.01,0.01-0.02,0.02l-1.24,1.12c-5.35,4.84-14.03,4.84-19.39,0.02c-0.01-0.01-0.01-0.01-0.02-0.02l-1.24-1.12
		c-5.35-4.84-14.03-4.84-19.39-0.02c-0.01,0.01-0.01,0.01-0.02,0.02l-1.24,1.12c-5.35,4.84-14.03,4.84-19.39,0.02
		c-0.01-0.01-0.01-0.01-0.02-0.02l-1.24-1.12c-5.35-4.84-14.03-4.84-19.39-0.02c-0.01,0.01-0.01,0.01-0.02,0.02l-1.24,1.12
		c-5.35,4.84-14.03,4.84-19.39,0.02c-0.01-0.01-0.01-0.01-0.02-0.02l-1.24-1.12c-5.35-4.84-14.03-4.84-19.39-0.02
		c-0.01,0.01-0.01,0.01-0.02,0.02l-1.24,1.12c-5.35,4.84-14.03,4.84-19.39,0.02c-0.01-0.01-0.01-0.01-0.02-0.02l-9.77-8.82H53.85
		c-3.21-8.73-4.87-17.88-4.89-27.08c0-37.58,27.33-70.74,69.04-90.43c8.81-4.18,18-7.67,27.46-10.43
		c0.46,11.25,4.77,22.1,12.32,31.06l5.3-2.73c14.43-7.45,32.29-6.89,46.12,1.43c6.97,4.22,15.15,6.52,23.54,6.65h0.76
		c5.29-0.01,10.53-0.88,15.49-2.55l7.64-2.55l0.07-0.06c3.33-3.93,6.04-8.25,8.05-12.86C308.81,116.55,338.06,150.65,338.06,189.53z
		"/>
	<path class="st8" d="M248.58,225.34c-5.47,0.01-10.72-1.95-14.57-5.45l-1.24-1.12c-2.68-2.4-7-2.4-9.68,0l-1.24,1.12
		c-8.05,7.25-21.1,7.25-29.14,0l-1.24-1.12c-2.68-2.4-7-2.4-9.68,0l-1.24,1.12c-8.15,7.04-20.99,7.04-29.14,0l-1.24-1.12
		c-2.68-2.4-7-2.4-9.68,0l-1.24,1.12c-8.05,7.25-21.1,7.25-29.14,0l-1.24-1.12c-2.71-2.34-6.97-2.34-9.68,0l-1.24,1.12
		c-8.05,7.25-21.1,7.25-29.14,0l-7.76-7h-7.2c-2.97,0-5.61-1.72-6.54-4.27c-3.44-9.36-5.2-19.15-5.23-29.02
		c0-46.81,39.74-88.72,101.25-106.77c3.61-1.06,7.5,0.72,8.67,3.98c0.2,0.55,0.31,1.12,0.33,1.7c0.34,8.13,2.94,16.06,7.57,23.04
		c16.68-8.43,37.18-7.74,53.12,1.78c9.93,5.95,22.42,7.23,33.57,3.44l5.78-1.93c6.06-7.72,9.48-16.88,9.84-26.33
		c0.14-3.43,3.33-6.11,7.13-5.98c0.64,0.02,1.27,0.12,1.88,0.3c61.5,18.05,101.25,59.97,101.25,106.77
		c-0.03,9.86-1.79,19.66-5.23,29.02c-0.93,2.55-3.57,4.27-6.54,4.27h-7.2l-7.76,7c-8.05,7.25-21.1,7.25-29.14,0l-1.24-1.12
		c-2.71-2.34-6.97-2.34-9.68,0l-1.24,1.12c-8.05,7.25-21.1,7.25-29.14,0l-1.24-1.12c-2.68-2.4-7-2.4-9.68,0l-1.24,1.12
		C259.3,223.39,254.05,225.35,248.58,225.34z M310.53,204.53c5.47-0.01,10.72,1.95,14.57,5.45l1.24,1.12c2.68,2.4,7,2.4,9.68,0
		l9.77-8.82c1.29-1.17,3.04-1.82,4.87-1.82h4.93c2.06-6.8,3.11-13.82,3.12-20.87c0-39.3-32.56-74.93-83.69-92.4
		c-1.86,9.65-6.26,18.75-12.83,26.53c-0.13,0.14-0.32,0.35-0.45,0.49c-0.74,0.74-1.68,1.3-2.72,1.65l-7.64,2.54
		c-15.29,5.14-32.39,3.37-45.99-4.76c-11.67-6.97-26.69-7.43-38.86-1.2l-5.31,2.74c-3.01,1.55-6.81,0.85-8.91-1.65
		c-6.52-7.74-10.88-16.77-12.75-26.34c-51.13,17.47-83.7,53.1-83.7,92.41c0.01,7.05,1.07,14.07,3.12,20.87h4.93
		c1.82,0,3.58,0.65,4.87,1.82l9.77,8.82c2.68,2.4,7,2.4,9.68,0l1.24-1.12c8.15-7.04,20.99-7.04,29.14,0l1.24,1.12
		c2.68,2.4,7,2.4,9.68,0l1.24-1.12c8.05-7.25,21.1-7.25,29.14,0l1.24,1.12c2.68,2.4,7,2.4,9.68,0l1.24-1.12
		c8.05-7.25,21.1-7.25,29.14,0l1.24,1.12c2.68,2.4,7,2.4,9.68,0l1.24-1.12c8.05-7.25,21.1-7.25,29.14,0l1.24,1.12
		c2.68,2.4,7,2.4,9.68,0l1.24-1.12c8.05-7.25,21.1-7.25,29.14,0l1.24,1.12c2.68,2.4,7,2.4,9.68,0l1.24-1.12
		C299.81,206.49,305.06,204.52,310.53,204.53z"/>
	<path class="st8" d="M63.9,212.89H53.85c-3.8,0-6.88-2.78-6.88-6.21c0-3.43,3.08-6.21,6.88-6.21H63.9c3.8,0,6.88,2.78,6.88,6.21
		C70.78,210.1,67.7,212.89,63.9,212.89L63.9,212.89z"/>
	<g>
		<path class="st9" d="M75.74,217.05c-3.06,0.09-5.98,1.14-8.26,2.98l-4.75-13.35h1.17l9.77,8.82
			C74.32,216.07,75,216.58,75.74,217.05z"/>
		<path class="st4" d="M351.83,206.68l-58.85,165.28c-1.84,5.14-7.15,8.63-13.15,8.63h-15.63c0.52-0.76,0.94-1.57,1.24-2.42
			l57.54-161.55c5.44,3.71,13.08,3.24,17.9-1.12l9.77-8.82L351.83,206.68L351.83,206.68z"/>
	</g>
	<g>
		<path class="st4" d="M322.99,216.61l-57.54,161.55c-0.3,0.85-0.72,1.66-1.24,2.42H134.73c-6,0-11.3-3.49-13.15-8.63l-54.1-151.92
			c2.28-1.84,5.2-2.89,8.26-2.98c5.48,3.17,12.67,2.53,17.35-1.55l1.24-1.12c5.35-4.84,14.03-4.84,19.39-0.02
			c0.01,0.01,0.01,0.01,0.02,0.02l1.24,1.12c0.64,0.57,1.33,1.09,2.06,1.55c2.47,1.5,5.43,2.2,8.4,1.99h0.07
			c3.35-0.13,6.52-1.39,8.88-3.54l1.24-1.12c5.35-4.84,14.03-4.84,19.39-0.02c0.01,0.01,0.01,0.01,0.02,0.02l1.24,1.12
			c0.64,0.57,1.33,1.09,2.07,1.55c2.47,1.5,5.43,2.2,8.4,1.99h0.07c3.35-0.13,6.52-1.39,8.88-3.54l1.24-1.12
			c5.35-4.84,14.03-4.84,19.39-0.02c0.01,0.01,0.01,0.01,0.02,0.02l1.24,1.12c0.64,0.57,1.33,1.09,2.07,1.55
			c2.47,1.5,5.43,2.2,8.4,1.99h0.07c3.35-0.13,6.52-1.39,8.88-3.54l1.24-1.12c5.35-4.84,14.03-4.84,19.39-0.02
			c0.01,0.01,0.01,0.01,0.02,0.02l1.24,1.12c0.64,0.57,1.33,1.09,2.07,1.55c2.47,1.5,5.43,2.2,8.4,1.99h0.07
			c3.35-0.13,6.52-1.39,8.88-3.54l1.24-1.12c5.35-4.84,14.03-4.84,19.39-0.02c0.01,0.01,0.01,0.01,0.02,0.02l1.24,1.12
			c0.64,0.57,1.33,1.09,2.07,1.55c5.48,3.17,12.67,2.53,17.35-1.55l1.24-1.12c5.35-4.84,14.03-4.84,19.39-0.02
			c0.01,0.01,0.01,0.01,0.02,0.02l0.62,0.56l0.62,0.56C321.93,215.92,322.44,216.3,322.99,216.61z"/>
		<path class="st10" d="M84.14,219.04c-2.97,0.21-5.93-0.49-8.4-1.99C78.71,216.84,81.67,217.54,84.14,219.04z"/>
		<path class="st10" d="M125.44,219.04c-2.97,0.21-5.93-0.49-8.4-1.99C120.01,216.84,122.97,217.54,125.44,219.04z"/>
		<path class="st10" d="M166.74,219.04c-2.97,0.21-5.93-0.49-8.4-1.99C161.31,216.84,164.27,217.54,166.74,219.04z"/>
		<path class="st10" d="M208.04,219.04c-2.97,0.21-5.93-0.49-8.4-1.99C202.61,216.84,205.57,217.54,208.04,219.04z"/>
		<path class="st10" d="M249.34,219.04c-2.97,0.21-5.93-0.49-8.4-1.99C243.91,216.84,246.87,217.54,249.34,219.04z"/>
		<path class="st10" d="M290.64,219.04c-2.97,0.21-5.93-0.49-8.4-1.99C285.21,216.84,288.17,217.54,290.64,219.04z"/>
		<path class="st10" d="M324.3,212.89l-1.31,3.73c-0.55-0.32-1.06-0.7-1.51-1.12l-0.62-0.56l2.27-2.05L324.3,212.89L324.3,212.89z"
			/>
	</g>
	<path class="st8" d="M279.83,386.79h-145.1c-8.98,0.01-16.93-5.21-19.69-12.92l-58.86-165.3c-1.16-3.27,0.84-6.77,4.46-7.81
		c0.67-0.2,1.38-0.3,2.09-0.3h1.17c1.82,0,3.58,0.65,4.87,1.82l9.77,8.82c2.68,2.4,7,2.4,9.68,0l1.24-1.12
		c8.05-7.25,21.1-7.25,29.14,0l1.24,1.12c2.68,2.4,7,2.4,9.68,0l1.24-1.12c8.05-7.25,21.1-7.25,29.14,0l1.24,1.12
		c2.68,2.4,7,2.4,9.68,0l1.24-1.12c8.05-7.25,21.1-7.25,29.14,0l1.24,1.12c2.68,2.4,7,2.4,9.68,0l1.24-1.12
		c8.05-7.25,21.1-7.25,29.14,0l1.24,1.12c2.68,2.4,7,2.4,9.68,0l1.24-1.12c8.05-7.25,21.1-7.25,29.14,0l1.24,1.12
		c2.68,2.4,7,2.4,9.68,0l1.24-1.12c8.05-7.25,21.1-7.25,29.14,0l1.24,1.12c2.68,2.4,7,2.4,9.68,0l9.77-8.82
		c1.29-1.17,3.04-1.82,4.87-1.82h1.17c3.81,0.01,6.88,2.79,6.88,6.22c0,0.64-0.11,1.28-0.33,1.89l-58.85,165.28
		C296.78,381.57,288.81,386.8,279.83,386.79z M76.19,224.16l51.95,145.89c0.93,2.58,3.59,4.32,6.59,4.32h145.1
		c3.02,0,5.68-1.76,6.6-4.34l51.94-145.87c-7.56,2.54-16.06,0.87-21.76-4.27l-1.24-1.12c-2.68-2.4-7-2.4-9.68,0l-1.24,1.12
		c-8.05,7.25-21.1,7.25-29.14,0l-1.24-1.12c-2.68-2.4-7-2.4-9.68,0l-1.24,1.12c-8.05,7.25-21.1,7.25-29.14,0l-1.24-1.12
		c-2.68-2.4-7-2.4-9.68,0l-1.24,1.12c-8.05,7.25-21.1,7.25-29.14,0l-1.24-1.12c-2.68-2.4-7-2.4-9.68,0l-1.24,1.12
		c-8.05,7.25-21.1,7.25-29.14,0l-1.24-1.12c-2.68-2.4-7-2.4-9.68,0l-1.24,1.12c-8.05,7.25-21.1,7.25-29.14,0l-1.24-1.12
		c-2.68-2.4-7-2.4-9.68,0l-1.24,1.12C92.25,225.03,83.75,226.7,76.19,224.16L76.19,224.16z"/>
	<path class="st11" d="M269.23,76.24c0.02,0.83-0.02,1.66-0.14,2.48c-0.45,11.32-4.78,22.23-12.39,31.24l-0.07,0.06l-7.64,2.55
		c-1.31,0.43-2.68,0.81-3.99,1.18c-3.75,0.89-7.61,1.34-11.5,1.37c-8.65,0.01-17.11-2.3-24.3-6.65
		c-13.83-8.32-31.69-8.88-46.12-1.43l-5.3,2.73c-7.55-8.96-11.86-19.81-12.32-31.06c-0.12-0.83-0.17-1.65-0.14-2.48
		c-0.01-10.24,3.1-20.27,9.02-29.01c0.07-0.12,0.14-0.12,0.14-0.12c17.8-26.33,55.89-34.66,85.08-18.6
		C258,38.66,269.25,56.75,269.23,76.24z"/>
	<path class="st11" d="M248.58,94.88c0.02,0.83-0.02,1.66-0.14,2.48c-0.22,5.59-1.38,11.12-3.44,16.4
		c-3.75,0.89-7.61,1.34-11.5,1.37c-8.65,0.01-17.11-2.3-24.3-6.65c-13.83-8.32-31.69-8.88-46.12-1.43l-5.3,2.73
		c-7.55-8.96-11.86-19.81-12.32-31.06c-0.12-0.83-0.17-1.65-0.14-2.48c-0.01-10.24,3.1-20.27,9.02-29.01
		c0.07-0.12,0.14-0.12,0.14-0.12c29.22-16.04,67.31-7.66,85.08,18.7C245.47,74.57,248.59,84.63,248.58,94.88z"/>
	<path class="st8" d="M233.51,121.34c-10.02,0.02-19.8-2.66-28.13-7.69c-11.67-6.97-26.69-7.43-38.86-1.2l-5.31,2.74
		c-3.01,1.55-6.81,0.85-8.91-1.65c-8.34-9.89-13.12-21.85-13.69-34.27c-0.12-1-0.18-2.01-0.16-3.02c0-34.3,30.82-62.11,68.83-62.11
		s68.83,27.81,68.83,62.11c0.01,1.01-0.03,2.01-0.15,3.01c-0.56,12.49-5.38,24.52-13.77,34.46c-0.13,0.14-0.32,0.35-0.45,0.49
		c-0.74,0.74-1.68,1.3-2.72,1.65l-7.64,2.54C245.66,120.33,239.61,121.32,233.51,121.34z M184.81,95.67
		c10.04-0.02,19.86,2.64,28.22,7.65c9.93,5.95,22.42,7.23,33.57,3.44l5.78-1.93c6.06-7.72,9.48-16.88,9.84-26.33
		c0.01-0.23,0.03-0.46,0.07-0.68c0.06-0.52,0.08-1.05,0.05-1.57c0-26.5-21.41-49.69-55.07-49.69c-30.41,0-55.07,22.25-55.07,49.69
		c-0.02,0.52-0.01,1.05,0.06,1.57c0.03,0.23,0.05,0.45,0.07,0.68c0.34,8.13,2.94,16.06,7.57,23.04
		C167.51,97.67,176.09,95.65,184.81,95.67z"/>
	<path class="st8" d="M172.86,82.46c-3.8,0-6.88-2.78-6.88-6.2v-0.01c0.03-20.57,18.5-37.24,41.3-37.27c3.8,0,6.88,2.78,6.88,6.21
		c0,3.43-3.08,6.21-6.88,6.21c-15.2,0.01-27.52,11.13-27.53,24.84C179.75,79.67,176.67,82.45,172.86,82.46L172.86,82.46
		L172.86,82.46z"/>
	<path class="st8" d="M138.45,125.93c-3.8,0.01-6.89-2.77-6.89-6.2c0-2.24,1.32-4.3,3.48-5.4l19.34-9.94
		c3.3-1.7,7.51-0.66,9.39,2.32s0.73,6.78-2.57,8.47l0,0l-19.34,9.94C140.82,125.65,139.65,125.93,138.45,125.93z"/>
	<path class="st8" d="M152.21,355.74c-3.05,0-5.74-1.81-6.6-4.46L111.2,245.69c-1.07-3.29,1.01-6.74,4.66-7.71
		c3.65-0.97,7.47,0.91,8.54,4.2l34.42,105.59c1.07,3.29-1.01,6.74-4.65,7.71h-0.01C153.53,355.65,152.88,355.74,152.21,355.74z"/>
	<path class="st8" d="M179.74,355.74c-3.34,0-6.2-2.17-6.77-5.13l-20.65-105.59c-0.67-3.37,1.82-6.6,5.55-7.21
		c3.74-0.61,7.32,1.64,7.99,5.01c0,0.01,0.01,0.02,0.01,0.04l20.65,105.59c0.66,3.37-1.83,6.59-5.57,7.19c-0.01,0-0.01,0-0.01,0
		C180.55,355.71,180.15,355.74,179.74,355.74z"/>
	<path class="st8" d="M262.35,355.74c-0.66,0-1.31-0.09-1.94-0.25c-3.64-0.96-5.73-4.42-4.66-7.7v-0.01l34.42-105.59
		c1.07-3.29,4.9-5.17,8.54-4.2c3.65,0.97,5.73,4.42,4.66,7.71l-34.42,105.59C268.09,353.93,265.4,355.74,262.35,355.74z"/>
	<path class="st8" d="M234.82,355.74c-0.41,0-0.81-0.03-1.2-0.1c-3.74-0.59-6.24-3.81-5.58-7.18c0-0.01,0-0.01,0-0.01l20.65-105.59
		c0.65-3.38,4.21-5.64,7.96-5.06c3.75,0.58,6.25,3.8,5.6,7.18c0,0.01-0.01,0.02-0.01,0.04l-20.65,105.59
		C241.02,353.57,238.16,355.74,234.82,355.74z"/>
	<path class="st8" d="M207.28,355.74c-3.8,0-6.88-2.78-6.88-6.2v-0.01V243.94c0-3.43,3.08-6.21,6.88-6.21c3.8,0,6.88,2.78,6.88,6.21
		v105.59C214.16,352.96,211.09,355.74,207.28,355.74L207.28,355.74L207.28,355.74z"/>
	<path class="st8" d="M104.03,150.78c-3.8,0-6.88-2.78-6.88-6.21c0-1.65,0.72-3.22,2.02-4.39l6.88-6.21
		c2.71-2.4,7.07-2.37,9.73,0.08c2.63,2.42,2.63,6.29,0,8.7l-6.88,6.21C107.61,150.12,105.86,150.78,104.03,150.78z"/>
	<path class="st8" d="M131.56,163.2c-3.8,0-6.88-2.78-6.88-6.21c0-1.65,0.72-3.22,2.02-4.39l6.88-6.21c2.71-2.4,7.07-2.37,9.73,0.08
		c2.63,2.42,2.63,6.29,0,8.7l-6.88,6.21C135.14,162.55,133.39,163.2,131.56,163.2z"/>
	<path class="st8" d="M97.15,181.83c-1.82,0-3.58-0.65-4.87-1.82l-6.88-6.21c-2.66-2.45-2.62-6.38,0.09-8.78
		c2.68-2.37,6.97-2.37,9.64,0l6.88,6.21c2.68,2.43,2.68,6.36,0,8.78C100.72,181.18,98.97,181.83,97.15,181.83z"/>
	<path class="st8" d="M165.98,150.78c-3.8,0-6.88-2.78-6.88-6.21c0-1.65,0.72-3.22,2.02-4.39l6.88-6.21
		c2.71-2.4,7.07-2.37,9.73,0.08c2.63,2.42,2.63,6.29,0,8.7l-6.88,6.21C169.56,150.12,167.81,150.78,165.98,150.78z"/>
	<path class="st8" d="M172.86,181.83c-1.82,0-3.58-0.65-4.87-1.82l-6.88-6.21c-2.66-2.45-2.62-6.38,0.09-8.78
		c2.68-2.37,6.97-2.37,9.64,0l6.88,6.21c2.68,2.43,2.68,6.36,0,8.78C176.44,181.18,174.69,181.83,172.86,181.83z"/>
	<path class="st8" d="M193.51,163.2c-3.8,0-6.88-2.78-6.88-6.21c0-1.65,0.72-3.22,2.02-4.39l6.88-6.21c2.71-2.4,7.07-2.37,9.73,0.08
		c2.63,2.42,2.63,6.29,0,8.7l-6.88,6.21C197.09,162.55,195.34,163.2,193.51,163.2z"/>
	<path class="st8" d="M227.93,150.78c-3.8,0-6.88-2.78-6.88-6.21c0-1.65,0.72-3.22,2.02-4.39l6.88-6.21
		c2.71-2.4,7.07-2.37,9.73,0.08c2.63,2.42,2.63,6.29,0,8.7l-6.88,6.21C231.51,150.12,229.76,150.78,227.93,150.78z"/>
	<path class="st8" d="M234.81,181.83c-1.82,0-3.58-0.65-4.87-1.82l-6.88-6.21c-2.66-2.45-2.62-6.38,0.09-8.78
		c2.68-2.37,6.97-2.37,9.64,0l6.88,6.21c2.68,2.43,2.68,6.36,0,8.78C238.39,181.18,236.64,181.83,234.81,181.83z"/>
	<path class="st8" d="M262.35,163.2c-3.8,0-6.88-2.78-6.88-6.21c0-1.65,0.72-3.22,2.02-4.39l6.88-6.21c2.71-2.4,7.07-2.37,9.73,0.08
		c2.63,2.42,2.63,6.29,0,8.7l-6.88,6.21C265.93,162.55,264.17,163.2,262.35,163.2z"/>
	<path class="st8" d="M296.76,150.78c-3.8,0-6.88-2.78-6.88-6.21c0-1.65,0.72-3.22,2.02-4.39l6.88-6.21
		c2.71-2.4,7.07-2.37,9.73,0.08c2.63,2.42,2.63,6.29,0,8.7l-6.88,6.21C300.34,150.12,298.59,150.78,296.76,150.78z"/>
	<path class="st8" d="M317.41,181.83c-1.82,0-3.58-0.65-4.87-1.82l-6.88-6.21c-2.66-2.45-2.62-6.38,0.09-8.78
		c2.68-2.37,6.97-2.37,9.64,0l6.88,6.21c2.68,2.43,2.68,6.36,0,8.78C320.99,181.18,319.24,181.83,317.41,181.83z"/>
</g>
</svg>
